<mxfile host="Electron" agent="Mozilla/5.0 (Windows NT 10.0; Win64; x64) AppleWebKit/537.36 (KHTML, like Gecko) draw.io/28.1.2 Chrome/138.0.7204.243 Electron/37.4.0 Safari/537.36" version="28.1.2" pages="2">
  <diagram name="DFD L0&amp;L1 Stets Home" id="MnnW-QWd7FSkF0TVXXXI">
    <mxGraphModel dx="4004" dy="206" grid="1" gridSize="10" guides="1" tooltips="1" connect="1" arrows="1" fold="1" page="1" pageScale="1" pageWidth="827" pageHeight="1169" math="0" shadow="0">
      <root>
        <mxCell id="z8qq_4gwUaZMmuzolN9k-0" />
        <mxCell id="z8qq_4gwUaZMmuzolN9k-1" parent="z8qq_4gwUaZMmuzolN9k-0" />
        <mxCell id="47XWVZMFMw58KMNI_bzC-15" value="0" style="swimlane;childLayout=stackLayout;horizontal=1;startSize=30;horizontalStack=0;rounded=1;fontSize=14;fontStyle=0;strokeWidth=1;resizeParent=0;resizeLast=1;shadow=0;dashed=0;align=center;fillColor=#FFFFFF;" parent="z8qq_4gwUaZMmuzolN9k-1" vertex="1">
          <mxGeometry x="-898" y="1392" width="160" height="120" as="geometry" />
        </mxCell>
        <mxCell id="47XWVZMFMw58KMNI_bzC-16" value="Приложение &#xa;&quot;Stets Home&quot;" style="align=center;strokeColor=none;fillColor=none;spacingLeft=4;fontSize=12;verticalAlign=middle;resizable=0;rotatable=0;part=1;" parent="47XWVZMFMw58KMNI_bzC-15" vertex="1">
          <mxGeometry y="30" width="160" height="90" as="geometry" />
        </mxCell>
        <mxCell id="47XWVZMFMw58KMNI_bzC-19" value="Данные учетной&lt;div&gt;записи&lt;/div&gt;" style="edgeStyle=orthogonalEdgeStyle;rounded=1;orthogonalLoop=1;jettySize=auto;html=1;exitX=1;exitY=0.5;exitDx=0;exitDy=0;entryX=0;entryY=0.5;entryDx=0;entryDy=0;curved=0;" parent="z8qq_4gwUaZMmuzolN9k-1" source="47XWVZMFMw58KMNI_bzC-17" target="47XWVZMFMw58KMNI_bzC-16" edge="1">
          <mxGeometry relative="1" as="geometry">
            <mxPoint x="-940" y="1452" as="targetPoint" />
          </mxGeometry>
        </mxCell>
        <mxCell id="47XWVZMFMw58KMNI_bzC-20" value="Подтверждение e-mail" style="edgeStyle=orthogonalEdgeStyle;rounded=1;orthogonalLoop=1;jettySize=auto;html=1;exitX=1;exitY=0.25;exitDx=0;exitDy=0;entryX=0;entryY=0.25;entryDx=0;entryDy=0;curved=0;" parent="z8qq_4gwUaZMmuzolN9k-1" source="47XWVZMFMw58KMNI_bzC-17" target="47XWVZMFMw58KMNI_bzC-16" edge="1">
          <mxGeometry relative="1" as="geometry">
            <Array as="points">
              <mxPoint x="-1100" y="1449" />
              <mxPoint x="-1100" y="1432" />
              <mxPoint x="-940" y="1432" />
              <mxPoint x="-940" y="1445" />
            </Array>
          </mxGeometry>
        </mxCell>
        <mxCell id="47XWVZMFMw58KMNI_bzC-22" value="Данные пространства" style="edgeStyle=orthogonalEdgeStyle;rounded=1;orthogonalLoop=1;jettySize=auto;html=1;exitX=0.5;exitY=0;exitDx=0;exitDy=0;entryX=0;entryY=0.25;entryDx=0;entryDy=0;curved=0;" parent="z8qq_4gwUaZMmuzolN9k-1" source="47XWVZMFMw58KMNI_bzC-17" target="47XWVZMFMw58KMNI_bzC-15" edge="1">
          <mxGeometry x="-0.0862" relative="1" as="geometry">
            <Array as="points">
              <mxPoint x="-1220" y="1402" />
              <mxPoint x="-940" y="1402" />
              <mxPoint x="-940" y="1422" />
            </Array>
            <mxPoint as="offset" />
          </mxGeometry>
        </mxCell>
        <mxCell id="47XWVZMFMw58KMNI_bzC-23" value="Данные&lt;div&gt;устройства&lt;/div&gt;" style="edgeStyle=orthogonalEdgeStyle;rounded=1;orthogonalLoop=1;jettySize=auto;html=1;exitX=0.5;exitY=0;exitDx=0;exitDy=0;entryX=0.25;entryY=0;entryDx=0;entryDy=0;curved=0;" parent="z8qq_4gwUaZMmuzolN9k-1" source="47XWVZMFMw58KMNI_bzC-17" target="47XWVZMFMw58KMNI_bzC-15" edge="1">
          <mxGeometry x="0.0857" relative="1" as="geometry">
            <Array as="points">
              <mxPoint x="-1220" y="1370" />
              <mxPoint x="-858" y="1370" />
            </Array>
            <mxPoint as="offset" />
          </mxGeometry>
        </mxCell>
        <mxCell id="47XWVZMFMw58KMNI_bzC-24" value="Команды управления&lt;div&gt;устройствами&lt;/div&gt;" style="edgeStyle=orthogonalEdgeStyle;rounded=1;orthogonalLoop=1;jettySize=auto;html=1;exitX=0.5;exitY=0;exitDx=0;exitDy=0;entryX=0.25;entryY=0;entryDx=0;entryDy=0;curved=0;" parent="z8qq_4gwUaZMmuzolN9k-1" source="47XWVZMFMw58KMNI_bzC-17" target="47XWVZMFMw58KMNI_bzC-15" edge="1">
          <mxGeometry x="0.076" relative="1" as="geometry">
            <Array as="points">
              <mxPoint x="-1220" y="1340" />
              <mxPoint x="-858" y="1340" />
            </Array>
            <mxPoint as="offset" />
          </mxGeometry>
        </mxCell>
        <mxCell id="47XWVZMFMw58KMNI_bzC-25" value="Данные сценария" style="edgeStyle=orthogonalEdgeStyle;rounded=1;orthogonalLoop=1;jettySize=auto;html=1;exitX=0.5;exitY=0;exitDx=0;exitDy=0;entryX=0.25;entryY=0;entryDx=0;entryDy=0;curved=0;" parent="z8qq_4gwUaZMmuzolN9k-1" source="47XWVZMFMw58KMNI_bzC-17" target="47XWVZMFMw58KMNI_bzC-15" edge="1">
          <mxGeometry x="0.0674" relative="1" as="geometry">
            <Array as="points">
              <mxPoint x="-1220" y="1310" />
              <mxPoint x="-858" y="1310" />
            </Array>
            <mxPoint as="offset" />
          </mxGeometry>
        </mxCell>
        <mxCell id="47XWVZMFMw58KMNI_bzC-26" value="Результат аунтентификации" style="edgeStyle=orthogonalEdgeStyle;rounded=1;orthogonalLoop=1;jettySize=auto;html=1;exitX=1;exitY=0.75;exitDx=0;exitDy=0;entryX=0;entryY=0.75;entryDx=0;entryDy=0;curved=0;startArrow=classic;startFill=1;endArrow=none;endFill=0;" parent="z8qq_4gwUaZMmuzolN9k-1" source="47XWVZMFMw58KMNI_bzC-17" target="47XWVZMFMw58KMNI_bzC-16" edge="1">
          <mxGeometry relative="1" as="geometry">
            <Array as="points">
              <mxPoint x="-1100" y="1484" />
              <mxPoint x="-1100" y="1522" />
              <mxPoint x="-940" y="1522" />
              <mxPoint x="-940" y="1490" />
            </Array>
          </mxGeometry>
        </mxCell>
        <mxCell id="47XWVZMFMw58KMNI_bzC-27" value="Статус подтверждения&lt;div&gt;e-mail (в UI)&lt;/div&gt;" style="edgeStyle=orthogonalEdgeStyle;rounded=1;orthogonalLoop=1;jettySize=auto;html=1;exitX=0.5;exitY=1;exitDx=0;exitDy=0;entryX=0.25;entryY=1;entryDx=0;entryDy=0;endArrow=none;endFill=0;startArrow=classic;startFill=1;curved=0;" parent="z8qq_4gwUaZMmuzolN9k-1" source="47XWVZMFMw58KMNI_bzC-17" target="47XWVZMFMw58KMNI_bzC-16" edge="1">
          <mxGeometry relative="1" as="geometry">
            <Array as="points">
              <mxPoint x="-1220" y="1552" />
              <mxPoint x="-858" y="1552" />
            </Array>
          </mxGeometry>
        </mxCell>
        <mxCell id="47XWVZMFMw58KMNI_bzC-28" value="Состояние устройства" style="edgeStyle=orthogonalEdgeStyle;rounded=1;orthogonalLoop=1;jettySize=auto;html=1;exitX=0.5;exitY=1;exitDx=0;exitDy=0;entryX=0.25;entryY=1;entryDx=0;entryDy=0;endArrow=none;endFill=0;startArrow=classic;startFill=1;curved=0;" parent="z8qq_4gwUaZMmuzolN9k-1" source="47XWVZMFMw58KMNI_bzC-17" target="47XWVZMFMw58KMNI_bzC-16" edge="1">
          <mxGeometry relative="1" as="geometry">
            <Array as="points">
              <mxPoint x="-1220" y="1610" />
              <mxPoint x="-858" y="1610" />
            </Array>
          </mxGeometry>
        </mxCell>
        <mxCell id="47XWVZMFMw58KMNI_bzC-31" value="Команда запуска&lt;div&gt;сценария&lt;/div&gt;" style="edgeStyle=orthogonalEdgeStyle;rounded=1;orthogonalLoop=1;jettySize=auto;html=1;exitX=0.5;exitY=0;exitDx=0;exitDy=0;entryX=0.25;entryY=0;entryDx=0;entryDy=0;curved=0;" parent="z8qq_4gwUaZMmuzolN9k-1" source="47XWVZMFMw58KMNI_bzC-17" target="47XWVZMFMw58KMNI_bzC-15" edge="1">
          <mxGeometry x="0.0614" relative="1" as="geometry">
            <Array as="points">
              <mxPoint x="-1220" y="1280" />
              <mxPoint x="-858" y="1280" />
            </Array>
            <mxPoint as="offset" />
          </mxGeometry>
        </mxCell>
        <mxCell id="47XWVZMFMw58KMNI_bzC-17" value="Пользователь" style="html=1;dashed=0;whitespace=wrap;" parent="z8qq_4gwUaZMmuzolN9k-1" vertex="1">
          <mxGeometry x="-1300" y="1432" width="160" height="70" as="geometry" />
        </mxCell>
        <mxCell id="47XWVZMFMw58KMNI_bzC-21" value="Запрос на&lt;div&gt;подключение/&lt;/div&gt;&lt;div&gt;отключение устройства&lt;/div&gt;" style="edgeStyle=orthogonalEdgeStyle;rounded=1;orthogonalLoop=1;jettySize=auto;html=1;exitX=0;exitY=0.5;exitDx=0;exitDy=0;entryX=1;entryY=0.5;entryDx=0;entryDy=0;endArrow=none;endFill=0;startArrow=classic;startFill=1;curved=0;" parent="z8qq_4gwUaZMmuzolN9k-1" source="47XWVZMFMw58KMNI_bzC-18" target="47XWVZMFMw58KMNI_bzC-16" edge="1">
          <mxGeometry relative="1" as="geometry">
            <mxPoint as="offset" />
          </mxGeometry>
        </mxCell>
        <mxCell id="47XWVZMFMw58KMNI_bzC-32" value="Команды управления&lt;div&gt;устройствами&lt;/div&gt;" style="edgeStyle=orthogonalEdgeStyle;rounded=1;orthogonalLoop=1;jettySize=auto;html=1;exitX=0;exitY=0.25;exitDx=0;exitDy=0;entryX=1;entryY=0.25;entryDx=0;entryDy=0;endArrow=none;endFill=0;startArrow=classic;startFill=1;curved=0;" parent="z8qq_4gwUaZMmuzolN9k-1" source="47XWVZMFMw58KMNI_bzC-18" target="47XWVZMFMw58KMNI_bzC-16" edge="1">
          <mxGeometry relative="1" as="geometry">
            <Array as="points">
              <mxPoint x="-580" y="1450" />
              <mxPoint x="-580" y="1412" />
              <mxPoint x="-700" y="1412" />
              <mxPoint x="-700" y="1444" />
            </Array>
          </mxGeometry>
        </mxCell>
        <mxCell id="47XWVZMFMw58KMNI_bzC-33" value="Пакет действий&lt;div&gt;&amp;nbsp;сценария&lt;/div&gt;" style="edgeStyle=orthogonalEdgeStyle;rounded=1;orthogonalLoop=1;jettySize=auto;html=1;exitX=0;exitY=0.75;exitDx=0;exitDy=0;entryX=1;entryY=0.75;entryDx=0;entryDy=0;endArrow=none;endFill=0;startArrow=classic;startFill=1;curved=0;" parent="z8qq_4gwUaZMmuzolN9k-1" source="47XWVZMFMw58KMNI_bzC-18" target="47XWVZMFMw58KMNI_bzC-16" edge="1">
          <mxGeometry relative="1" as="geometry">
            <Array as="points">
              <mxPoint x="-580" y="1484" />
              <mxPoint x="-580" y="1522" />
              <mxPoint x="-700" y="1522" />
              <mxPoint x="-700" y="1490" />
            </Array>
          </mxGeometry>
        </mxCell>
        <mxCell id="47XWVZMFMw58KMNI_bzC-34" value="Данные&amp;nbsp;&lt;span style=&quot;background-color: light-dark(#ffffff, var(--ge-dark-color, #121212)); color: light-dark(rgb(0, 0, 0), rgb(255, 255, 255));&quot;&gt;состояния&lt;/span&gt;&lt;div&gt;устройств&lt;/div&gt;" style="edgeStyle=orthogonalEdgeStyle;rounded=1;orthogonalLoop=1;jettySize=auto;html=1;exitX=0.5;exitY=0;exitDx=0;exitDy=0;curved=0;entryX=0.75;entryY=0;entryDx=0;entryDy=0;" parent="z8qq_4gwUaZMmuzolN9k-1" source="47XWVZMFMw58KMNI_bzC-18" target="47XWVZMFMw58KMNI_bzC-15" edge="1">
          <mxGeometry x="0.0972" relative="1" as="geometry">
            <mxPoint x="-778" y="1390" as="targetPoint" />
            <Array as="points">
              <mxPoint x="-463" y="1370" />
              <mxPoint x="-778" y="1370" />
            </Array>
            <mxPoint as="offset" />
          </mxGeometry>
        </mxCell>
        <mxCell id="47XWVZMFMw58KMNI_bzC-35" value="Подтверждения выполнения&lt;div&gt;команд&lt;/div&gt;" style="edgeStyle=orthogonalEdgeStyle;rounded=1;orthogonalLoop=1;jettySize=auto;html=1;exitX=0.5;exitY=0;exitDx=0;exitDy=0;entryX=0.75;entryY=0;entryDx=0;entryDy=0;curved=0;" parent="z8qq_4gwUaZMmuzolN9k-1" source="47XWVZMFMw58KMNI_bzC-18" target="47XWVZMFMw58KMNI_bzC-15" edge="1">
          <mxGeometry x="0.0845" relative="1" as="geometry">
            <Array as="points">
              <mxPoint x="-463" y="1340" />
              <mxPoint x="-778" y="1340" />
            </Array>
            <mxPoint as="offset" />
          </mxGeometry>
        </mxCell>
        <mxCell id="47XWVZMFMw58KMNI_bzC-18" value="Устройства/&lt;br&gt;шлюз" style="html=1;dashed=0;whitespace=wrap;" parent="z8qq_4gwUaZMmuzolN9k-1" vertex="1">
          <mxGeometry x="-538" y="1432" width="150" height="70" as="geometry" />
        </mxCell>
        <mxCell id="0X7pjvixFZiFpelbETfm-1" value="Контекстная L0" style="text;html=1;align=center;verticalAlign=middle;resizable=0;points=[];autosize=1;strokeColor=none;fillColor=none;" parent="z8qq_4gwUaZMmuzolN9k-1" vertex="1">
          <mxGeometry x="-873" y="1190" width="110" height="30" as="geometry" />
        </mxCell>
        <mxCell id="0X7pjvixFZiFpelbETfm-21" value="Логическая L1" style="text;html=1;align=center;verticalAlign=middle;resizable=0;points=[];autosize=1;strokeColor=none;fillColor=none;" parent="z8qq_4gwUaZMmuzolN9k-1" vertex="1">
          <mxGeometry x="729.89" y="1200" width="100" height="30" as="geometry" />
        </mxCell>
        <mxCell id="IIqbcNlDZg47EImc8gEP-2" value="Статус сценария" style="edgeStyle=orthogonalEdgeStyle;rounded=1;orthogonalLoop=1;jettySize=auto;html=1;exitX=0.25;exitY=1;exitDx=0;exitDy=0;entryX=0.5;entryY=1;entryDx=0;entryDy=0;curved=0;" parent="z8qq_4gwUaZMmuzolN9k-1" source="47XWVZMFMw58KMNI_bzC-16" target="47XWVZMFMw58KMNI_bzC-17" edge="1">
          <mxGeometry relative="1" as="geometry">
            <Array as="points">
              <mxPoint x="-858" y="1638" />
              <mxPoint x="-1220" y="1638" />
            </Array>
            <mxPoint x="-858" y="1490" as="sourcePoint" />
            <mxPoint x="-1220" y="1480" as="targetPoint" />
          </mxGeometry>
        </mxCell>
        <mxCell id="PqN7hThSDUKnDAijEFsO-2" value="Данные&amp;nbsp;&lt;div&gt;учетной&lt;div&gt;записи&lt;/div&gt;&lt;/div&gt;" style="edgeStyle=orthogonalEdgeStyle;rounded=1;orthogonalLoop=1;jettySize=auto;html=1;exitX=0.5;exitY=0;exitDx=0;exitDy=0;curved=0;entryX=0.25;entryY=0;entryDx=0;entryDy=0;" parent="z8qq_4gwUaZMmuzolN9k-1" source="PqN7hThSDUKnDAijEFsO-53" target="PqN7hThSDUKnDAijEFsO-41" edge="1">
          <mxGeometry x="0.4736" relative="1" as="geometry">
            <mxPoint x="459.89" y="1400" as="targetPoint" />
            <mxPoint x="899.89" y="1192" as="sourcePoint" />
            <Array as="points">
              <mxPoint x="559.89" y="1270" />
              <mxPoint x="239.89" y="1270" />
            </Array>
            <mxPoint as="offset" />
          </mxGeometry>
        </mxCell>
        <mxCell id="PqN7hThSDUKnDAijEFsO-3" value="Подтверждение&lt;div&gt;e-mail&lt;/div&gt;" style="edgeStyle=orthogonalEdgeStyle;rounded=1;orthogonalLoop=1;jettySize=auto;html=1;exitX=0.5;exitY=0;exitDx=0;exitDy=0;curved=0;entryX=0;entryY=0.25;entryDx=0;entryDy=0;" parent="z8qq_4gwUaZMmuzolN9k-1" source="PqN7hThSDUKnDAijEFsO-53" target="PqN7hThSDUKnDAijEFsO-42" edge="1">
          <mxGeometry x="0.437" relative="1" as="geometry">
            <Array as="points">
              <mxPoint x="559.89" y="1270" />
              <mxPoint x="159.89" y="1270" />
              <mxPoint x="159.89" y="1722" />
            </Array>
            <mxPoint x="899.89" y="1174.5" as="sourcePoint" />
            <mxPoint x="142.11222222222216" y="1730" as="targetPoint" />
            <mxPoint y="1" as="offset" />
          </mxGeometry>
        </mxCell>
        <mxCell id="PqN7hThSDUKnDAijEFsO-4" value="Данные&lt;div&gt;дома&lt;/div&gt;" style="edgeStyle=orthogonalEdgeStyle;rounded=1;orthogonalLoop=1;jettySize=auto;html=1;exitX=0;exitY=0.5;exitDx=0;exitDy=0;entryX=0.25;entryY=0;entryDx=0;entryDy=0;curved=0;" parent="z8qq_4gwUaZMmuzolN9k-1" source="PqN7hThSDUKnDAijEFsO-53" target="PqN7hThSDUKnDAijEFsO-35" edge="1">
          <mxGeometry x="-0.0862" relative="1" as="geometry">
            <Array as="points">
              <mxPoint x="419.89" y="1345" />
              <mxPoint x="419.89" y="1540" />
              <mxPoint x="519.89" y="1540" />
            </Array>
            <mxPoint as="offset" />
            <mxPoint x="819.89" y="1157" as="sourcePoint" />
            <mxPoint x="1141.89" y="1147" as="targetPoint" />
          </mxGeometry>
        </mxCell>
        <mxCell id="PqN7hThSDUKnDAijEFsO-5" value="Данные&lt;div&gt;устройства&lt;/div&gt;" style="edgeStyle=orthogonalEdgeStyle;rounded=1;orthogonalLoop=1;jettySize=auto;html=1;exitX=1;exitY=0.75;exitDx=0;exitDy=0;entryX=0.75;entryY=0;entryDx=0;entryDy=0;curved=0;" parent="z8qq_4gwUaZMmuzolN9k-1" source="PqN7hThSDUKnDAijEFsO-53" target="PqN7hThSDUKnDAijEFsO-39" edge="1">
          <mxGeometry x="0.5928" relative="1" as="geometry">
            <mxPoint as="offset" />
            <Array as="points">
              <mxPoint x="1149.89" y="1362" />
            </Array>
            <mxPoint x="819.89" y="1157" as="sourcePoint" />
            <mxPoint x="1181.89" y="1117" as="targetPoint" />
          </mxGeometry>
        </mxCell>
        <mxCell id="PqN7hThSDUKnDAijEFsO-6" value="Команда управления&lt;div&gt;устройством&lt;/div&gt;" style="edgeStyle=orthogonalEdgeStyle;rounded=1;orthogonalLoop=1;jettySize=auto;html=1;exitX=1;exitY=0.75;exitDx=0;exitDy=0;entryX=0.5;entryY=0;entryDx=0;entryDy=0;curved=0;" parent="z8qq_4gwUaZMmuzolN9k-1" source="PqN7hThSDUKnDAijEFsO-53" target="PqN7hThSDUKnDAijEFsO-39" edge="1">
          <mxGeometry x="-0.3827" relative="1" as="geometry">
            <Array as="points">
              <mxPoint x="1109.89" y="1362" />
            </Array>
            <mxPoint as="offset" />
            <mxPoint x="819.89" y="1157" as="sourcePoint" />
            <mxPoint x="1181.89" y="1117" as="targetPoint" />
          </mxGeometry>
        </mxCell>
        <mxCell id="PqN7hThSDUKnDAijEFsO-7" value="Данные&lt;div&gt;сценария&lt;/div&gt;" style="edgeStyle=orthogonalEdgeStyle;rounded=1;orthogonalLoop=1;jettySize=auto;html=1;exitX=1;exitY=0.25;exitDx=0;exitDy=0;entryX=0.75;entryY=0;entryDx=0;entryDy=0;curved=0;" parent="z8qq_4gwUaZMmuzolN9k-1" source="PqN7hThSDUKnDAijEFsO-53" target="PqN7hThSDUKnDAijEFsO-43" edge="1">
          <mxGeometry x="0.6767" relative="1" as="geometry">
            <Array as="points">
              <mxPoint x="679.89" y="1328" />
              <mxPoint x="679.89" y="1300" />
              <mxPoint x="1419.89" y="1300" />
            </Array>
            <mxPoint as="offset" />
            <mxPoint x="819.89" y="1157" as="sourcePoint" />
            <mxPoint x="1181.89" y="1117" as="targetPoint" />
          </mxGeometry>
        </mxCell>
        <mxCell id="PqN7hThSDUKnDAijEFsO-8" value="Результат&lt;div&gt;аунтентификации&lt;/div&gt;" style="edgeStyle=orthogonalEdgeStyle;rounded=1;orthogonalLoop=1;jettySize=auto;html=1;entryX=0.5;entryY=0;entryDx=0;entryDy=0;curved=0;startArrow=classic;startFill=1;endArrow=none;endFill=0;exitX=0;exitY=0.25;exitDx=0;exitDy=0;" parent="z8qq_4gwUaZMmuzolN9k-1" source="PqN7hThSDUKnDAijEFsO-53" target="PqN7hThSDUKnDAijEFsO-41" edge="1">
          <mxGeometry x="0.3732" relative="1" as="geometry">
            <Array as="points">
              <mxPoint x="319.89" y="1328" />
              <mxPoint x="319.89" y="1630" />
              <mxPoint x="279.89" y="1630" />
            </Array>
            <mxPoint x="449.89" y="1150" as="sourcePoint" />
            <mxPoint x="1141.89" y="1214.5" as="targetPoint" />
            <mxPoint as="offset" />
          </mxGeometry>
        </mxCell>
        <mxCell id="PqN7hThSDUKnDAijEFsO-9" value="Статус&lt;div&gt;подтверждения&lt;div&gt;e-mail (в UI)&lt;/div&gt;&lt;/div&gt;" style="edgeStyle=orthogonalEdgeStyle;rounded=1;orthogonalLoop=1;jettySize=auto;html=1;exitX=0;exitY=0.25;exitDx=0;exitDy=0;entryX=0.75;entryY=0;entryDx=0;entryDy=0;endArrow=none;endFill=0;startArrow=classic;startFill=1;curved=0;" parent="z8qq_4gwUaZMmuzolN9k-1" source="PqN7hThSDUKnDAijEFsO-53" target="PqN7hThSDUKnDAijEFsO-41" edge="1">
          <mxGeometry x="0.5224" relative="1" as="geometry">
            <Array as="points">
              <mxPoint x="369.89" y="1328" />
              <mxPoint x="369.89" y="1630" />
              <mxPoint x="319.89" y="1630" />
            </Array>
            <mxPoint x="779.89" y="1227" as="sourcePoint" />
            <mxPoint x="1181.89" y="1237" as="targetPoint" />
            <mxPoint as="offset" />
          </mxGeometry>
        </mxCell>
        <mxCell id="PqN7hThSDUKnDAijEFsO-10" value="Состояние&lt;div&gt;устройства&lt;/div&gt;" style="edgeStyle=orthogonalEdgeStyle;rounded=1;orthogonalLoop=1;jettySize=auto;html=1;exitX=0.75;exitY=1;exitDx=0;exitDy=0;entryX=0.25;entryY=0;entryDx=0;entryDy=0;endArrow=none;endFill=0;startArrow=classic;startFill=1;curved=0;" parent="z8qq_4gwUaZMmuzolN9k-1" source="PqN7hThSDUKnDAijEFsO-53" target="PqN7hThSDUKnDAijEFsO-39" edge="1">
          <mxGeometry x="0.7632" relative="1" as="geometry">
            <Array as="points">
              <mxPoint x="599.89" y="1410" />
              <mxPoint x="1069.89" y="1410" />
            </Array>
            <mxPoint x="819.89" y="1227" as="sourcePoint" />
            <mxPoint x="1181.89" y="1237" as="targetPoint" />
            <mxPoint y="-1" as="offset" />
          </mxGeometry>
        </mxCell>
        <mxCell id="PqN7hThSDUKnDAijEFsO-11" value="Команда&amp;nbsp;&lt;div&gt;запуска&lt;div&gt;сценария&lt;/div&gt;&lt;/div&gt;" style="edgeStyle=orthogonalEdgeStyle;rounded=1;orthogonalLoop=1;jettySize=auto;html=1;exitX=1;exitY=0.25;exitDx=0;exitDy=0;entryX=0.5;entryY=0;entryDx=0;entryDy=0;curved=0;" parent="z8qq_4gwUaZMmuzolN9k-1" source="PqN7hThSDUKnDAijEFsO-53" target="PqN7hThSDUKnDAijEFsO-43" edge="1">
          <mxGeometry x="0.7538" relative="1" as="geometry">
            <Array as="points">
              <mxPoint x="679.89" y="1328" />
              <mxPoint x="679.89" y="1300" />
              <mxPoint x="1379.89" y="1300" />
            </Array>
            <mxPoint as="offset" />
            <mxPoint x="819.89" y="1157" as="sourcePoint" />
            <mxPoint x="1181.89" y="1117" as="targetPoint" />
          </mxGeometry>
        </mxCell>
        <mxCell id="PqN7hThSDUKnDAijEFsO-13" value="Запрос на&lt;div&gt;подключение/&lt;/div&gt;&lt;div&gt;отключение&lt;/div&gt;&lt;div&gt;устройства&lt;/div&gt;" style="edgeStyle=orthogonalEdgeStyle;rounded=1;orthogonalLoop=1;jettySize=auto;html=1;exitX=0;exitY=0.75;exitDx=0;exitDy=0;entryX=0;entryY=0.25;entryDx=0;entryDy=0;endArrow=none;endFill=0;startArrow=classic;startFill=1;curved=0;" parent="z8qq_4gwUaZMmuzolN9k-1" source="PqN7hThSDUKnDAijEFsO-61" target="PqN7hThSDUKnDAijEFsO-40" edge="1">
          <mxGeometry x="-0.3881" relative="1" as="geometry">
            <mxPoint x="2159.89" y="1567" as="sourcePoint" />
            <mxPoint x="1959.89" y="1567" as="targetPoint" />
            <Array as="points">
              <mxPoint x="959.89" y="2303" />
              <mxPoint x="959.89" y="1723" />
            </Array>
            <mxPoint as="offset" />
          </mxGeometry>
        </mxCell>
        <mxCell id="PqN7hThSDUKnDAijEFsO-14" value="Команды&lt;div&gt;&amp;nbsp;управления&lt;div&gt;устройствами&lt;/div&gt;&lt;/div&gt;" style="edgeStyle=orthogonalEdgeStyle;rounded=1;orthogonalLoop=1;jettySize=auto;html=1;exitX=0;exitY=0.25;exitDx=0;exitDy=0;entryX=0;entryY=0.75;entryDx=0;entryDy=0;endArrow=none;endFill=0;startArrow=classic;startFill=1;curved=0;align=center;" parent="z8qq_4gwUaZMmuzolN9k-1" source="PqN7hThSDUKnDAijEFsO-61" target="PqN7hThSDUKnDAijEFsO-40" edge="1">
          <mxGeometry x="0.6186" relative="1" as="geometry">
            <Array as="points">
              <mxPoint x="999.89" y="2267" />
              <mxPoint x="999.89" y="1768" />
              <mxPoint x="1029.89" y="1768" />
            </Array>
            <mxPoint as="offset" />
            <mxPoint x="2159.89" y="1549.5" as="sourcePoint" />
            <mxPoint x="1959.89" y="1544.5" as="targetPoint" />
          </mxGeometry>
        </mxCell>
        <mxCell id="PqN7hThSDUKnDAijEFsO-15" value="Пакет&lt;div&gt;действий&lt;div&gt;&amp;nbsp;сценария&lt;/div&gt;&lt;/div&gt;" style="edgeStyle=orthogonalEdgeStyle;rounded=1;orthogonalLoop=1;jettySize=auto;html=1;exitX=1;exitY=0.25;exitDx=0;exitDy=0;entryX=0;entryY=0.25;entryDx=0;entryDy=0;endArrow=none;endFill=0;startArrow=classic;startFill=1;curved=0;" parent="z8qq_4gwUaZMmuzolN9k-1" source="PqN7hThSDUKnDAijEFsO-61" target="PqN7hThSDUKnDAijEFsO-44" edge="1">
          <mxGeometry x="-0.6037" relative="1" as="geometry">
            <Array as="points">
              <mxPoint x="1329.89" y="2267" />
              <mxPoint x="1329.89" y="1850" />
              <mxPoint x="1249.89" y="1850" />
              <mxPoint x="1249.89" y="1723" />
            </Array>
            <mxPoint x="2159.89" y="1584.5" as="sourcePoint" />
            <mxPoint x="1959.89" y="1589.5" as="targetPoint" />
            <mxPoint as="offset" />
          </mxGeometry>
        </mxCell>
        <mxCell id="PqN7hThSDUKnDAijEFsO-16" value="Данные&lt;div&gt;состояния&lt;/div&gt;&lt;div&gt;устройств&lt;/div&gt;" style="edgeStyle=orthogonalEdgeStyle;rounded=1;orthogonalLoop=1;jettySize=auto;html=1;exitX=0.5;exitY=0;exitDx=0;exitDy=0;entryX=1;entryY=0.5;entryDx=0;entryDy=0;curved=0;" parent="z8qq_4gwUaZMmuzolN9k-1" source="PqN7hThSDUKnDAijEFsO-61" target="PqN7hThSDUKnDAijEFsO-40" edge="1">
          <mxGeometry x="0.416" relative="1" as="geometry">
            <mxPoint x="1919.89" y="1492" as="targetPoint" />
            <Array as="points">
              <mxPoint x="1134.89" y="2210" />
              <mxPoint x="1309.89" y="2210" />
              <mxPoint x="1309.89" y="1900" />
              <mxPoint x="1229.89" y="1900" />
              <mxPoint x="1229.89" y="1745" />
            </Array>
            <mxPoint as="offset" />
            <mxPoint x="2234.89" y="1532" as="sourcePoint" />
          </mxGeometry>
        </mxCell>
        <mxCell id="PqN7hThSDUKnDAijEFsO-17" value="Подтверждения&lt;div&gt;выполнения&lt;div&gt;команд&lt;/div&gt;&lt;/div&gt;" style="edgeStyle=orthogonalEdgeStyle;rounded=1;orthogonalLoop=1;jettySize=auto;html=1;exitX=1;exitY=0.75;exitDx=0;exitDy=0;entryX=0;entryY=0.75;entryDx=0;entryDy=0;curved=0;" parent="z8qq_4gwUaZMmuzolN9k-1" source="PqN7hThSDUKnDAijEFsO-61" target="PqN7hThSDUKnDAijEFsO-44" edge="1">
          <mxGeometry x="-0.8348" relative="1" as="geometry">
            <Array as="points">
              <mxPoint x="1379.89" y="2303" />
              <mxPoint x="1379.89" y="2180" />
              <mxPoint x="1349.89" y="2180" />
              <mxPoint x="1349.89" y="1830" />
              <mxPoint x="1269.89" y="1830" />
              <mxPoint x="1269.89" y="1767" />
            </Array>
            <mxPoint x="-1" as="offset" />
            <mxPoint x="2234.89" y="1532" as="sourcePoint" />
            <mxPoint x="1919.89" y="1492" as="targetPoint" />
          </mxGeometry>
        </mxCell>
        <mxCell id="PqN7hThSDUKnDAijEFsO-19" value="Данные&lt;div&gt;пользователей&lt;/div&gt;" style="edgeStyle=orthogonalEdgeStyle;rounded=1;orthogonalLoop=1;jettySize=auto;html=1;exitX=1;exitY=0.5;exitDx=0;exitDy=0;entryX=0.5;entryY=1;entryDx=0;entryDy=0;curved=0;" parent="z8qq_4gwUaZMmuzolN9k-1" source="PqN7hThSDUKnDAijEFsO-20" target="PqN7hThSDUKnDAijEFsO-42" edge="1">
          <mxGeometry x="-0.2696" relative="1" as="geometry">
            <Array as="points">
              <mxPoint x="279.89" y="2065" />
            </Array>
            <mxPoint as="offset" />
            <mxPoint x="1919.89" y="1612" as="targetPoint" />
          </mxGeometry>
        </mxCell>
        <mxCell id="PqN7hThSDUKnDAijEFsO-20" value="D1&amp;nbsp; &amp;nbsp; &amp;nbsp;Пользователи&amp;nbsp; &amp;nbsp;" style="html=1;dashed=0;whiteSpace=wrap;shape=mxgraph.dfd.dataStoreID;align=left;spacingLeft=3;points=[[0,0],[0.5,0],[1,0],[0,0.5],[1,0.5],[0,1],[0.5,1],[1,1]];" parent="z8qq_4gwUaZMmuzolN9k-1" vertex="1">
          <mxGeometry x="79.89" y="2040" width="160" height="50" as="geometry" />
        </mxCell>
        <mxCell id="PqN7hThSDUKnDAijEFsO-21" value="Данные&lt;div&gt;домов&lt;/div&gt;" style="edgeStyle=orthogonalEdgeStyle;rounded=1;orthogonalLoop=1;jettySize=auto;html=1;exitX=1;exitY=0.5;exitDx=0;exitDy=0;entryX=0.5;entryY=1;entryDx=0;entryDy=0;curved=0;" parent="z8qq_4gwUaZMmuzolN9k-1" source="PqN7hThSDUKnDAijEFsO-22" target="PqN7hThSDUKnDAijEFsO-36" edge="1">
          <mxGeometry x="-0.4706" relative="1" as="geometry">
            <mxPoint x="1919.89" y="1612" as="targetPoint" />
            <Array as="points">
              <mxPoint x="649.89" y="2065" />
              <mxPoint x="649.89" y="1930" />
              <mxPoint x="559.89" y="1930" />
            </Array>
            <mxPoint as="offset" />
          </mxGeometry>
        </mxCell>
        <mxCell id="PqN7hThSDUKnDAijEFsO-22" value="D2&amp;nbsp; &amp;nbsp; &amp;nbsp;Дома" style="html=1;dashed=0;whiteSpace=wrap;shape=mxgraph.dfd.dataStoreID;align=left;spacingLeft=3;points=[[0,0],[0.5,0],[1,0],[0,0.5],[1,0.5],[0,1],[0.5,1],[1,1]];" parent="z8qq_4gwUaZMmuzolN9k-1" vertex="1">
          <mxGeometry x="446.89" y="2040" width="160" height="50" as="geometry" />
        </mxCell>
        <mxCell id="PqN7hThSDUKnDAijEFsO-23" value="Данные&lt;div&gt;устройств&lt;/div&gt;" style="edgeStyle=orthogonalEdgeStyle;rounded=1;orthogonalLoop=1;jettySize=auto;html=1;exitX=1;exitY=0.5;exitDx=0;exitDy=0;curved=0;entryX=0.75;entryY=1;entryDx=0;entryDy=0;" parent="z8qq_4gwUaZMmuzolN9k-1" source="PqN7hThSDUKnDAijEFsO-24" target="PqN7hThSDUKnDAijEFsO-40" edge="1">
          <mxGeometry x="-0.483" relative="1" as="geometry">
            <Array as="points">
              <mxPoint x="1269.89" y="2065" />
              <mxPoint x="1269.89" y="1930" />
              <mxPoint x="1149.89" y="1930" />
            </Array>
            <mxPoint as="offset" />
            <mxPoint x="1919.89" y="1612" as="targetPoint" />
          </mxGeometry>
        </mxCell>
        <mxCell id="PqN7hThSDUKnDAijEFsO-24" value="D3&amp;nbsp; &amp;nbsp; &amp;nbsp;Устройства&amp;nbsp; &amp;nbsp;" style="html=1;dashed=0;whiteSpace=wrap;shape=mxgraph.dfd.dataStoreID;align=left;spacingLeft=3;points=[[0,0],[0.5,0],[1,0],[0,0.5],[1,0.5],[0,1],[0.5,1],[1,1]];" parent="z8qq_4gwUaZMmuzolN9k-1" vertex="1">
          <mxGeometry x="1059.89" y="2040" width="160" height="50" as="geometry" />
        </mxCell>
        <mxCell id="PqN7hThSDUKnDAijEFsO-25" value="Данные&lt;div&gt;сценариев&lt;/div&gt;" style="edgeStyle=orthogonalEdgeStyle;rounded=1;orthogonalLoop=1;jettySize=auto;html=1;exitX=1;exitY=0.5;exitDx=0;exitDy=0;entryX=0.75;entryY=1;entryDx=0;entryDy=0;curved=0;" parent="z8qq_4gwUaZMmuzolN9k-1" source="PqN7hThSDUKnDAijEFsO-26" target="PqN7hThSDUKnDAijEFsO-44" edge="1">
          <mxGeometry x="-0.5922" relative="1" as="geometry">
            <Array as="points">
              <mxPoint x="1619.89" y="2065" />
              <mxPoint x="1619.89" y="1940" />
              <mxPoint x="1419.89" y="1940" />
            </Array>
            <mxPoint as="offset" />
            <mxPoint x="1919.89" y="1612" as="targetPoint" />
          </mxGeometry>
        </mxCell>
        <mxCell id="PqN7hThSDUKnDAijEFsO-26" value="D4&amp;nbsp; &amp;nbsp; &amp;nbsp;Сценарии&amp;nbsp; &amp;nbsp;" style="html=1;dashed=0;whiteSpace=wrap;shape=mxgraph.dfd.dataStoreID;align=left;spacingLeft=3;points=[[0,0],[0.5,0],[1,0],[0,0.5],[1,0.5],[0,1],[0.5,1],[1,1]];" parent="z8qq_4gwUaZMmuzolN9k-1" vertex="1">
          <mxGeometry x="1419.89" y="2040" width="160" height="50" as="geometry" />
        </mxCell>
        <mxCell id="PqN7hThSDUKnDAijEFsO-27" value="Данные&lt;div&gt;комнат&lt;/div&gt;" style="edgeStyle=orthogonalEdgeStyle;rounded=1;orthogonalLoop=1;jettySize=auto;html=1;entryX=0.75;entryY=1;entryDx=0;entryDy=0;curved=0;exitX=1;exitY=0.5;exitDx=0;exitDy=0;" parent="z8qq_4gwUaZMmuzolN9k-1" source="PqN7hThSDUKnDAijEFsO-28" target="PqN7hThSDUKnDAijEFsO-38" edge="1">
          <mxGeometry x="-0.4545" relative="1" as="geometry">
            <Array as="points">
              <mxPoint x="929.89" y="2065" />
              <mxPoint x="929.89" y="1930" />
              <mxPoint x="879.89" y="1930" />
            </Array>
            <mxPoint as="offset" />
            <mxPoint x="2247.89" y="2160" as="sourcePoint" />
            <mxPoint x="1919.89" y="1612" as="targetPoint" />
          </mxGeometry>
        </mxCell>
        <mxCell id="PqN7hThSDUKnDAijEFsO-28" value="D3&amp;nbsp; &amp;nbsp; &amp;nbsp;Комнаты" style="html=1;dashed=0;whiteSpace=wrap;shape=mxgraph.dfd.dataStoreID;align=left;spacingLeft=3;points=[[0,0],[0.5,0],[1,0],[0,0.5],[1,0.5],[0,1],[0.5,1],[1,1]];" parent="z8qq_4gwUaZMmuzolN9k-1" vertex="1">
          <mxGeometry x="739.89" y="2040" width="160" height="50" as="geometry" />
        </mxCell>
        <mxCell id="PqN7hThSDUKnDAijEFsO-29" value="Новый&lt;div&gt;пользователь&lt;/div&gt;" style="edgeStyle=orthogonalEdgeStyle;rounded=1;orthogonalLoop=1;jettySize=auto;html=1;exitX=0.25;exitY=1;exitDx=0;exitDy=0;entryX=0;entryY=0.5;entryDx=0;entryDy=0;curved=0;" parent="z8qq_4gwUaZMmuzolN9k-1" source="PqN7hThSDUKnDAijEFsO-42" target="PqN7hThSDUKnDAijEFsO-20" edge="1">
          <mxGeometry x="0.5434" relative="1" as="geometry">
            <mxPoint as="offset" />
            <mxPoint x="1701.89" y="1602" as="sourcePoint" />
            <Array as="points">
              <mxPoint x="239.89" y="1925" />
              <mxPoint x="39.89" y="1925" />
              <mxPoint x="39.89" y="2065" />
            </Array>
          </mxGeometry>
        </mxCell>
        <mxCell id="PqN7hThSDUKnDAijEFsO-30" value="Новый&lt;div&gt;дом&lt;/div&gt;" style="edgeStyle=orthogonalEdgeStyle;rounded=1;orthogonalLoop=1;jettySize=auto;html=1;exitX=0.25;exitY=1;exitDx=0;exitDy=0;entryX=0;entryY=0.5;entryDx=0;entryDy=0;curved=0;" parent="z8qq_4gwUaZMmuzolN9k-1" source="PqN7hThSDUKnDAijEFsO-36" target="PqN7hThSDUKnDAijEFsO-22" edge="1">
          <mxGeometry x="0.5166" relative="1" as="geometry">
            <mxPoint as="offset" />
            <mxPoint x="1701.89" y="1602" as="sourcePoint" />
            <Array as="points">
              <mxPoint x="519.89" y="1930" />
              <mxPoint x="409.89" y="1930" />
              <mxPoint x="409.89" y="2065" />
            </Array>
          </mxGeometry>
        </mxCell>
        <mxCell id="PqN7hThSDUKnDAijEFsO-31" value="Новое&lt;div&gt;устройство&lt;/div&gt;" style="edgeStyle=orthogonalEdgeStyle;rounded=1;orthogonalLoop=1;jettySize=auto;html=1;exitX=0.5;exitY=1;exitDx=0;exitDy=0;entryX=0;entryY=0.5;entryDx=0;entryDy=0;curved=0;" parent="z8qq_4gwUaZMmuzolN9k-1" source="PqN7hThSDUKnDAijEFsO-40" target="PqN7hThSDUKnDAijEFsO-24" edge="1">
          <mxGeometry x="0.4458" relative="1" as="geometry">
            <mxPoint as="offset" />
            <mxPoint x="1701.89" y="1602" as="sourcePoint" />
            <Array as="points">
              <mxPoint x="1109.89" y="1930" />
              <mxPoint x="1029.89" y="1930" />
              <mxPoint x="1029.89" y="2065" />
            </Array>
          </mxGeometry>
        </mxCell>
        <mxCell id="PqN7hThSDUKnDAijEFsO-32" value="Новый&lt;div&gt;сценарий&lt;/div&gt;" style="edgeStyle=orthogonalEdgeStyle;rounded=1;orthogonalLoop=1;jettySize=auto;html=1;exitX=0.5;exitY=1;exitDx=0;exitDy=0;entryX=0;entryY=0.5;entryDx=0;entryDy=0;curved=0;" parent="z8qq_4gwUaZMmuzolN9k-1" source="PqN7hThSDUKnDAijEFsO-44" target="PqN7hThSDUKnDAijEFsO-26" edge="1">
          <mxGeometry x="0.3331" relative="1" as="geometry">
            <mxPoint y="1" as="offset" />
            <mxPoint x="1701.89" y="1602" as="sourcePoint" />
          </mxGeometry>
        </mxCell>
        <mxCell id="PqN7hThSDUKnDAijEFsO-33" value="Новая&lt;div&gt;комната&lt;/div&gt;" style="edgeStyle=orthogonalEdgeStyle;rounded=1;orthogonalLoop=1;jettySize=auto;html=1;curved=0;align=center;verticalAlign=middle;labelPosition=center;verticalLabelPosition=middle;entryX=0;entryY=0.5;entryDx=0;entryDy=0;exitX=0.5;exitY=1;exitDx=0;exitDy=0;" parent="z8qq_4gwUaZMmuzolN9k-1" source="PqN7hThSDUKnDAijEFsO-38" target="PqN7hThSDUKnDAijEFsO-28" edge="1">
          <mxGeometry x="0.5281" relative="1" as="geometry">
            <mxPoint as="offset" />
            <mxPoint x="1439.89" y="1930" as="targetPoint" />
            <mxPoint x="559.89" y="2170" as="sourcePoint" />
            <Array as="points">
              <mxPoint x="839.89" y="1930" />
              <mxPoint x="699.89" y="1930" />
              <mxPoint x="699.89" y="2065" />
            </Array>
          </mxGeometry>
        </mxCell>
        <mxCell id="PqN7hThSDUKnDAijEFsO-34" value="Статус сценария" style="edgeStyle=orthogonalEdgeStyle;rounded=1;orthogonalLoop=1;jettySize=auto;html=1;exitX=0.25;exitY=0;exitDx=0;exitDy=0;entryX=1;entryY=0.5;entryDx=0;entryDy=0;curved=0;" parent="z8qq_4gwUaZMmuzolN9k-1" source="PqN7hThSDUKnDAijEFsO-43" target="PqN7hThSDUKnDAijEFsO-53" edge="1">
          <mxGeometry x="-0.1122" relative="1" as="geometry">
            <Array as="points">
              <mxPoint x="1339.89" y="1330" />
              <mxPoint x="729.89" y="1330" />
              <mxPoint x="729.89" y="1345" />
            </Array>
            <mxPoint x="1181.89" y="1237" as="sourcePoint" />
            <mxPoint x="859.89" y="1227" as="targetPoint" />
            <mxPoint as="offset" />
          </mxGeometry>
        </mxCell>
        <mxCell id="PqN7hThSDUKnDAijEFsO-35" value="2" style="swimlane;childLayout=stackLayout;horizontal=1;startSize=30;horizontalStack=0;rounded=1;fontSize=14;fontStyle=0;strokeWidth=1;resizeParent=0;resizeLast=1;shadow=0;dashed=0;align=center;fillColor=#FFFFFF;" parent="z8qq_4gwUaZMmuzolN9k-1" vertex="1">
          <mxGeometry x="479.89" y="1670" width="160" height="120" as="geometry" />
        </mxCell>
        <mxCell id="PqN7hThSDUKnDAijEFsO-36" value="Управлять&#xa;домом" style="align=center;strokeColor=none;fillColor=none;spacingLeft=4;fontSize=12;verticalAlign=middle;resizable=0;rotatable=0;part=1;" parent="PqN7hThSDUKnDAijEFsO-35" vertex="1">
          <mxGeometry y="30" width="160" height="90" as="geometry" />
        </mxCell>
        <mxCell id="PqN7hThSDUKnDAijEFsO-37" value="3" style="swimlane;childLayout=stackLayout;horizontal=1;startSize=30;horizontalStack=0;rounded=1;fontSize=14;fontStyle=0;strokeWidth=1;resizeParent=0;resizeLast=1;shadow=0;dashed=0;align=center;fillColor=#FFFFFF;" parent="z8qq_4gwUaZMmuzolN9k-1" vertex="1">
          <mxGeometry x="759.89" y="1670" width="160" height="120" as="geometry" />
        </mxCell>
        <mxCell id="PqN7hThSDUKnDAijEFsO-38" value="Управлять&#xa;комнатами" style="align=center;strokeColor=none;fillColor=none;spacingLeft=4;fontSize=12;verticalAlign=middle;resizable=0;rotatable=0;part=1;" parent="PqN7hThSDUKnDAijEFsO-37" vertex="1">
          <mxGeometry y="30" width="160" height="90" as="geometry" />
        </mxCell>
        <mxCell id="PqN7hThSDUKnDAijEFsO-39" value="4" style="swimlane;childLayout=stackLayout;horizontal=1;startSize=30;horizontalStack=0;rounded=1;fontSize=14;fontStyle=0;strokeWidth=1;resizeParent=0;resizeLast=1;shadow=0;dashed=0;align=center;fillColor=#FFFFFF;" parent="z8qq_4gwUaZMmuzolN9k-1" vertex="1">
          <mxGeometry x="1029.89" y="1670" width="160" height="120" as="geometry" />
        </mxCell>
        <mxCell id="PqN7hThSDUKnDAijEFsO-40" value="Управлять&#xa;устройствами" style="align=center;strokeColor=none;fillColor=none;spacingLeft=4;fontSize=12;verticalAlign=middle;resizable=0;rotatable=0;part=1;" parent="PqN7hThSDUKnDAijEFsO-39" vertex="1">
          <mxGeometry y="30" width="160" height="90" as="geometry" />
        </mxCell>
        <mxCell id="PqN7hThSDUKnDAijEFsO-41" value="1" style="swimlane;childLayout=stackLayout;horizontal=1;startSize=30;horizontalStack=0;rounded=1;fontSize=14;fontStyle=0;strokeWidth=1;resizeParent=0;resizeLast=1;shadow=0;dashed=0;align=center;fillColor=#FFFFFF;" parent="z8qq_4gwUaZMmuzolN9k-1" vertex="1">
          <mxGeometry x="199.89" y="1670" width="160" height="120" as="geometry" />
        </mxCell>
        <mxCell id="PqN7hThSDUKnDAijEFsO-42" value="Управлять&#xa;учетной записью" style="align=center;strokeColor=none;fillColor=none;spacingLeft=4;fontSize=12;verticalAlign=middle;resizable=0;rotatable=0;part=1;" parent="PqN7hThSDUKnDAijEFsO-41" vertex="1">
          <mxGeometry y="30" width="160" height="90" as="geometry" />
        </mxCell>
        <mxCell id="PqN7hThSDUKnDAijEFsO-43" value="5" style="swimlane;childLayout=stackLayout;horizontal=1;startSize=30;horizontalStack=0;rounded=1;fontSize=14;fontStyle=0;strokeWidth=1;resizeParent=0;resizeLast=1;shadow=0;dashed=0;align=center;fillColor=#FFFFFF;" parent="z8qq_4gwUaZMmuzolN9k-1" vertex="1">
          <mxGeometry x="1299.89" y="1670" width="160" height="120" as="geometry" />
        </mxCell>
        <mxCell id="PqN7hThSDUKnDAijEFsO-44" value="Управлять&#xa;сценариями" style="align=center;strokeColor=none;fillColor=none;spacingLeft=4;fontSize=12;verticalAlign=middle;resizable=0;rotatable=0;part=1;" parent="PqN7hThSDUKnDAijEFsO-43" vertex="1">
          <mxGeometry y="30" width="160" height="90" as="geometry" />
        </mxCell>
        <mxCell id="PqN7hThSDUKnDAijEFsO-53" value="Пользователь" style="html=1;dashed=0;whitespace=wrap;" parent="z8qq_4gwUaZMmuzolN9k-1" vertex="1">
          <mxGeometry x="479.89" y="1310" width="160" height="70" as="geometry" />
        </mxCell>
        <mxCell id="PqN7hThSDUKnDAijEFsO-56" value="Данные&lt;div&gt;комнаты&lt;/div&gt;" style="edgeStyle=orthogonalEdgeStyle;rounded=1;orthogonalLoop=1;jettySize=auto;html=1;exitX=0.25;exitY=1;exitDx=0;exitDy=0;entryX=0.25;entryY=0;entryDx=0;entryDy=0;curved=0;" parent="z8qq_4gwUaZMmuzolN9k-1" source="PqN7hThSDUKnDAijEFsO-53" target="PqN7hThSDUKnDAijEFsO-37" edge="1">
          <mxGeometry x="0.6491" relative="1" as="geometry">
            <Array as="points">
              <mxPoint x="519.89" y="1470" />
              <mxPoint x="799.89" y="1470" />
            </Array>
            <mxPoint y="1" as="offset" />
            <mxPoint x="839.89" y="1390" as="sourcePoint" />
            <mxPoint x="1161.89" y="1380" as="targetPoint" />
          </mxGeometry>
        </mxCell>
        <mxCell id="PqN7hThSDUKnDAijEFsO-57" value="Статус&lt;div&gt;дома&lt;/div&gt;" style="edgeStyle=orthogonalEdgeStyle;rounded=1;orthogonalLoop=1;jettySize=auto;html=1;entryX=0;entryY=0.75;entryDx=0;entryDy=0;curved=0;exitX=0.75;exitY=0;exitDx=0;exitDy=0;" parent="z8qq_4gwUaZMmuzolN9k-1" source="PqN7hThSDUKnDAijEFsO-35" target="PqN7hThSDUKnDAijEFsO-53" edge="1">
          <mxGeometry x="-0.5665" relative="1" as="geometry">
            <Array as="points">
              <mxPoint x="599.89" y="1490" />
              <mxPoint x="439.89" y="1490" />
              <mxPoint x="439.89" y="1362" />
            </Array>
            <mxPoint y="1" as="offset" />
            <mxPoint x="1089.89" y="1390" as="sourcePoint" />
            <mxPoint x="1411.89" y="1380" as="targetPoint" />
          </mxGeometry>
        </mxCell>
        <mxCell id="PqN7hThSDUKnDAijEFsO-58" value="Статус&lt;div&gt;комнаты&lt;/div&gt;" style="edgeStyle=orthogonalEdgeStyle;rounded=1;orthogonalLoop=1;jettySize=auto;html=1;exitX=0.75;exitY=0;exitDx=0;exitDy=0;entryX=0.5;entryY=1;entryDx=0;entryDy=0;curved=0;" parent="z8qq_4gwUaZMmuzolN9k-1" source="PqN7hThSDUKnDAijEFsO-37" target="PqN7hThSDUKnDAijEFsO-53" edge="1">
          <mxGeometry x="-0.6393" relative="1" as="geometry">
            <Array as="points">
              <mxPoint x="879.89" y="1440" />
              <mxPoint x="559.89" y="1440" />
            </Array>
            <mxPoint y="1" as="offset" />
            <mxPoint x="1159.89" y="1390" as="sourcePoint" />
            <mxPoint x="1481.89" y="1380" as="targetPoint" />
          </mxGeometry>
        </mxCell>
        <mxCell id="PqN7hThSDUKnDAijEFsO-61" value="Устройства/&lt;br&gt;шлюз" style="html=1;dashed=0;whitespace=wrap;" parent="z8qq_4gwUaZMmuzolN9k-1" vertex="1">
          <mxGeometry x="1059.89" y="2250" width="150" height="70" as="geometry" />
        </mxCell>
        <mxCell id="PqN7hThSDUKnDAijEFsO-62" value="Состояние пространства" style="edgeStyle=orthogonalEdgeStyle;rounded=1;orthogonalLoop=1;jettySize=auto;html=1;exitX=0.25;exitY=1;exitDx=0;exitDy=0;entryX=0.5;entryY=1;entryDx=0;entryDy=0;curved=0;" parent="z8qq_4gwUaZMmuzolN9k-1" source="47XWVZMFMw58KMNI_bzC-16" target="47XWVZMFMw58KMNI_bzC-17" edge="1">
          <mxGeometry relative="1" as="geometry">
            <Array as="points">
              <mxPoint x="-858" y="1578" />
              <mxPoint x="-1220" y="1578" />
            </Array>
            <mxPoint x="-858" y="1480" as="sourcePoint" />
            <mxPoint x="-1220" y="1470" as="targetPoint" />
          </mxGeometry>
        </mxCell>
      </root>
    </mxGraphModel>
  </diagram>
  <diagram id="xzmoIf4-ixnHpPlwYKO3" name="ER 3НФ Stets Home">
    <mxGraphModel dx="1763" dy="1031" grid="1" gridSize="10" guides="1" tooltips="1" connect="1" arrows="1" fold="1" page="1" pageScale="1" pageWidth="827" pageHeight="1169" math="0" shadow="0">
      <root>
        <mxCell id="0" />
        <mxCell id="1" parent="0" />
        <mxCell id="vt8VXtntIdCtcG0MY4LM-1" value="Пользователь" style="shape=table;startSize=30;container=1;collapsible=1;childLayout=tableLayout;fixedRows=1;rowLines=0;fontStyle=1;align=center;resizeLast=1;html=1;fontSize=14;" parent="1" vertex="1">
          <mxGeometry x="50" y="320" width="210" height="210" as="geometry">
            <mxRectangle x="840" y="1250" width="120" height="30" as="alternateBounds" />
          </mxGeometry>
        </mxCell>
        <mxCell id="vt8VXtntIdCtcG0MY4LM-2" value="" style="shape=tableRow;horizontal=0;startSize=0;swimlaneHead=0;swimlaneBody=0;fillColor=none;collapsible=0;dropTarget=0;points=[[0,0.5],[1,0.5]];portConstraint=eastwest;top=0;left=0;right=0;bottom=1;fontSize=13;" parent="vt8VXtntIdCtcG0MY4LM-1" vertex="1">
          <mxGeometry y="30" width="210" height="30" as="geometry" />
        </mxCell>
        <mxCell id="vt8VXtntIdCtcG0MY4LM-3" value="PK" style="shape=partialRectangle;connectable=0;fillColor=none;top=0;left=0;bottom=0;right=0;fontStyle=1;overflow=hidden;whiteSpace=wrap;html=1;fontSize=13;" parent="vt8VXtntIdCtcG0MY4LM-2" vertex="1">
          <mxGeometry width="30" height="30" as="geometry">
            <mxRectangle width="30" height="30" as="alternateBounds" />
          </mxGeometry>
        </mxCell>
        <mxCell id="vt8VXtntIdCtcG0MY4LM-4" value="ID Пользователя" style="shape=partialRectangle;connectable=0;fillColor=none;top=0;left=0;bottom=0;right=0;align=left;spacingLeft=6;fontStyle=5;overflow=hidden;whiteSpace=wrap;html=1;fontSize=13;" parent="vt8VXtntIdCtcG0MY4LM-2" vertex="1">
          <mxGeometry x="30" width="180" height="30" as="geometry">
            <mxRectangle width="180" height="30" as="alternateBounds" />
          </mxGeometry>
        </mxCell>
        <mxCell id="vt8VXtntIdCtcG0MY4LM-5" value="" style="shape=tableRow;horizontal=0;startSize=0;swimlaneHead=0;swimlaneBody=0;fillColor=none;collapsible=0;dropTarget=0;points=[[0,0.5],[1,0.5]];portConstraint=eastwest;top=0;left=0;right=0;bottom=0;fontSize=13;" parent="vt8VXtntIdCtcG0MY4LM-1" vertex="1">
          <mxGeometry y="60" width="210" height="30" as="geometry" />
        </mxCell>
        <mxCell id="vt8VXtntIdCtcG0MY4LM-6" value="" style="shape=partialRectangle;connectable=0;fillColor=none;top=0;left=0;bottom=0;right=0;editable=1;overflow=hidden;whiteSpace=wrap;html=1;fontSize=13;" parent="vt8VXtntIdCtcG0MY4LM-5" vertex="1">
          <mxGeometry width="30" height="30" as="geometry">
            <mxRectangle width="30" height="30" as="alternateBounds" />
          </mxGeometry>
        </mxCell>
        <mxCell id="vt8VXtntIdCtcG0MY4LM-7" value="E-mail" style="shape=partialRectangle;connectable=0;fillColor=none;top=0;left=0;bottom=0;right=0;align=left;spacingLeft=6;overflow=hidden;whiteSpace=wrap;html=1;fontSize=13;" parent="vt8VXtntIdCtcG0MY4LM-5" vertex="1">
          <mxGeometry x="30" width="180" height="30" as="geometry">
            <mxRectangle width="180" height="30" as="alternateBounds" />
          </mxGeometry>
        </mxCell>
        <mxCell id="vt8VXtntIdCtcG0MY4LM-8" style="shape=tableRow;horizontal=0;startSize=0;swimlaneHead=0;swimlaneBody=0;fillColor=none;collapsible=0;dropTarget=0;points=[[0,0.5],[1,0.5]];portConstraint=eastwest;top=0;left=0;right=0;bottom=0;fontSize=13;" parent="vt8VXtntIdCtcG0MY4LM-1" vertex="1">
          <mxGeometry y="90" width="210" height="30" as="geometry" />
        </mxCell>
        <mxCell id="vt8VXtntIdCtcG0MY4LM-9" style="shape=partialRectangle;connectable=0;fillColor=none;top=0;left=0;bottom=0;right=0;editable=1;overflow=hidden;whiteSpace=wrap;html=1;fontSize=13;" parent="vt8VXtntIdCtcG0MY4LM-8" vertex="1">
          <mxGeometry width="30" height="30" as="geometry">
            <mxRectangle width="30" height="30" as="alternateBounds" />
          </mxGeometry>
        </mxCell>
        <mxCell id="vt8VXtntIdCtcG0MY4LM-10" value="Хэш пароля" style="shape=partialRectangle;connectable=0;fillColor=none;top=0;left=0;bottom=0;right=0;align=left;spacingLeft=6;overflow=hidden;whiteSpace=wrap;html=1;fontSize=13;" parent="vt8VXtntIdCtcG0MY4LM-8" vertex="1">
          <mxGeometry x="30" width="180" height="30" as="geometry">
            <mxRectangle width="180" height="30" as="alternateBounds" />
          </mxGeometry>
        </mxCell>
        <mxCell id="vt8VXtntIdCtcG0MY4LM-14" style="shape=tableRow;horizontal=0;startSize=0;swimlaneHead=0;swimlaneBody=0;fillColor=none;collapsible=0;dropTarget=0;points=[[0,0.5],[1,0.5]];portConstraint=eastwest;top=0;left=0;right=0;bottom=0;fontSize=13;" parent="vt8VXtntIdCtcG0MY4LM-1" vertex="1">
          <mxGeometry y="120" width="210" height="30" as="geometry" />
        </mxCell>
        <mxCell id="vt8VXtntIdCtcG0MY4LM-15" style="shape=partialRectangle;connectable=0;fillColor=none;top=0;left=0;bottom=0;right=0;editable=1;overflow=hidden;whiteSpace=wrap;html=1;fontSize=13;" parent="vt8VXtntIdCtcG0MY4LM-14" vertex="1">
          <mxGeometry width="30" height="30" as="geometry">
            <mxRectangle width="30" height="30" as="alternateBounds" />
          </mxGeometry>
        </mxCell>
        <mxCell id="vt8VXtntIdCtcG0MY4LM-16" value="Имя" style="shape=partialRectangle;connectable=0;fillColor=none;top=0;left=0;bottom=0;right=0;align=left;spacingLeft=6;overflow=hidden;whiteSpace=wrap;html=1;fontSize=13;" parent="vt8VXtntIdCtcG0MY4LM-14" vertex="1">
          <mxGeometry x="30" width="180" height="30" as="geometry">
            <mxRectangle width="180" height="30" as="alternateBounds" />
          </mxGeometry>
        </mxCell>
        <mxCell id="vt8VXtntIdCtcG0MY4LM-20" style="shape=tableRow;horizontal=0;startSize=0;swimlaneHead=0;swimlaneBody=0;fillColor=none;collapsible=0;dropTarget=0;points=[[0,0.5],[1,0.5]];portConstraint=eastwest;top=0;left=0;right=0;bottom=0;fontSize=13;" parent="vt8VXtntIdCtcG0MY4LM-1" vertex="1">
          <mxGeometry y="150" width="210" height="30" as="geometry" />
        </mxCell>
        <mxCell id="vt8VXtntIdCtcG0MY4LM-21" style="shape=partialRectangle;connectable=0;fillColor=none;top=0;left=0;bottom=0;right=0;editable=1;overflow=hidden;whiteSpace=wrap;html=1;fontSize=13;" parent="vt8VXtntIdCtcG0MY4LM-20" vertex="1">
          <mxGeometry width="30" height="30" as="geometry">
            <mxRectangle width="30" height="30" as="alternateBounds" />
          </mxGeometry>
        </mxCell>
        <mxCell id="vt8VXtntIdCtcG0MY4LM-22" value="Дата и время создания" style="shape=partialRectangle;connectable=0;fillColor=none;top=0;left=0;bottom=0;right=0;align=left;spacingLeft=6;overflow=hidden;whiteSpace=wrap;html=1;fontSize=13;" parent="vt8VXtntIdCtcG0MY4LM-20" vertex="1">
          <mxGeometry x="30" width="180" height="30" as="geometry">
            <mxRectangle width="180" height="30" as="alternateBounds" />
          </mxGeometry>
        </mxCell>
        <mxCell id="vt8VXtntIdCtcG0MY4LM-23" style="shape=tableRow;horizontal=0;startSize=0;swimlaneHead=0;swimlaneBody=0;fillColor=none;collapsible=0;dropTarget=0;points=[[0,0.5],[1,0.5]];portConstraint=eastwest;top=0;left=0;right=0;bottom=0;fontSize=13;" parent="vt8VXtntIdCtcG0MY4LM-1" vertex="1">
          <mxGeometry y="180" width="210" height="30" as="geometry" />
        </mxCell>
        <mxCell id="vt8VXtntIdCtcG0MY4LM-24" style="shape=partialRectangle;connectable=0;fillColor=none;top=0;left=0;bottom=0;right=0;editable=1;overflow=hidden;whiteSpace=wrap;html=1;fontSize=13;" parent="vt8VXtntIdCtcG0MY4LM-23" vertex="1">
          <mxGeometry width="30" height="30" as="geometry">
            <mxRectangle width="30" height="30" as="alternateBounds" />
          </mxGeometry>
        </mxCell>
        <mxCell id="vt8VXtntIdCtcG0MY4LM-25" value="Дата подтверждения" style="shape=partialRectangle;connectable=0;fillColor=none;top=0;left=0;bottom=0;right=0;align=left;spacingLeft=6;overflow=hidden;whiteSpace=wrap;html=1;fontSize=13;" parent="vt8VXtntIdCtcG0MY4LM-23" vertex="1">
          <mxGeometry x="30" width="180" height="30" as="geometry">
            <mxRectangle width="180" height="30" as="alternateBounds" />
          </mxGeometry>
        </mxCell>
        <mxCell id="JlGFgwWq2l1EsmMrptgn-1" value="Участник дома" style="shape=table;startSize=30;container=1;collapsible=1;childLayout=tableLayout;fixedRows=1;rowLines=0;fontStyle=1;align=center;resizeLast=1;html=1;fontSize=14;" parent="1" vertex="1">
          <mxGeometry x="420" y="430" width="210" height="150" as="geometry">
            <mxRectangle x="840" y="1250" width="120" height="30" as="alternateBounds" />
          </mxGeometry>
        </mxCell>
        <mxCell id="JlGFgwWq2l1EsmMrptgn-2" value="" style="shape=tableRow;horizontal=0;startSize=0;swimlaneHead=0;swimlaneBody=0;fillColor=none;collapsible=0;dropTarget=0;points=[[0,0.5],[1,0.5]];portConstraint=eastwest;top=0;left=0;right=0;bottom=0;fontSize=13;" parent="JlGFgwWq2l1EsmMrptgn-1" vertex="1">
          <mxGeometry y="30" width="210" height="30" as="geometry" />
        </mxCell>
        <mxCell id="JlGFgwWq2l1EsmMrptgn-3" value="&lt;b&gt;FK&lt;/b&gt;" style="shape=partialRectangle;connectable=0;fillColor=none;top=0;left=0;bottom=0;right=0;editable=1;overflow=hidden;whiteSpace=wrap;html=1;fontSize=13;" parent="JlGFgwWq2l1EsmMrptgn-2" vertex="1">
          <mxGeometry width="30" height="30" as="geometry">
            <mxRectangle width="30" height="30" as="alternateBounds" />
          </mxGeometry>
        </mxCell>
        <mxCell id="JlGFgwWq2l1EsmMrptgn-4" value="&lt;b&gt;ID Пользователя&lt;/b&gt;" style="shape=partialRectangle;connectable=0;fillColor=none;top=0;left=0;bottom=0;right=0;align=left;spacingLeft=6;overflow=hidden;whiteSpace=wrap;html=1;fontSize=13;" parent="JlGFgwWq2l1EsmMrptgn-2" vertex="1">
          <mxGeometry x="30" width="180" height="30" as="geometry">
            <mxRectangle width="180" height="30" as="alternateBounds" />
          </mxGeometry>
        </mxCell>
        <mxCell id="JlGFgwWq2l1EsmMrptgn-5" value="" style="shape=tableRow;horizontal=0;startSize=0;swimlaneHead=0;swimlaneBody=0;fillColor=none;collapsible=0;dropTarget=0;points=[[0,0.5],[1,0.5]];portConstraint=eastwest;top=0;left=0;right=0;bottom=1;fontSize=13;" parent="JlGFgwWq2l1EsmMrptgn-1" vertex="1">
          <mxGeometry y="60" width="210" height="30" as="geometry" />
        </mxCell>
        <mxCell id="JlGFgwWq2l1EsmMrptgn-6" value="&lt;b&gt;FK&lt;/b&gt;" style="shape=partialRectangle;connectable=0;fillColor=none;top=0;left=0;bottom=0;right=0;editable=1;overflow=hidden;whiteSpace=wrap;html=1;fontSize=13;" parent="JlGFgwWq2l1EsmMrptgn-5" vertex="1">
          <mxGeometry width="30" height="30" as="geometry">
            <mxRectangle width="30" height="30" as="alternateBounds" />
          </mxGeometry>
        </mxCell>
        <mxCell id="JlGFgwWq2l1EsmMrptgn-7" value="&lt;b&gt;ID Дома&lt;/b&gt;" style="shape=partialRectangle;connectable=0;fillColor=none;top=0;left=0;bottom=0;right=0;align=left;spacingLeft=6;overflow=hidden;whiteSpace=wrap;html=1;fontSize=13;" parent="JlGFgwWq2l1EsmMrptgn-5" vertex="1">
          <mxGeometry x="30" width="180" height="30" as="geometry">
            <mxRectangle width="180" height="30" as="alternateBounds" />
          </mxGeometry>
        </mxCell>
        <mxCell id="JlGFgwWq2l1EsmMrptgn-8" style="shape=tableRow;horizontal=0;startSize=0;swimlaneHead=0;swimlaneBody=0;fillColor=none;collapsible=0;dropTarget=0;points=[[0,0.5],[1,0.5]];portConstraint=eastwest;top=0;left=0;right=0;bottom=0;fontSize=13;" parent="JlGFgwWq2l1EsmMrptgn-1" vertex="1">
          <mxGeometry y="90" width="210" height="30" as="geometry" />
        </mxCell>
        <mxCell id="JlGFgwWq2l1EsmMrptgn-9" style="shape=partialRectangle;connectable=0;fillColor=none;top=0;left=0;bottom=0;right=0;editable=1;overflow=hidden;whiteSpace=wrap;html=1;fontSize=13;" parent="JlGFgwWq2l1EsmMrptgn-8" vertex="1">
          <mxGeometry width="30" height="30" as="geometry">
            <mxRectangle width="30" height="30" as="alternateBounds" />
          </mxGeometry>
        </mxCell>
        <mxCell id="JlGFgwWq2l1EsmMrptgn-10" value="Роль в доме" style="shape=partialRectangle;connectable=0;fillColor=none;top=0;left=0;bottom=0;right=0;align=left;spacingLeft=6;overflow=hidden;whiteSpace=wrap;html=1;fontSize=13;" parent="JlGFgwWq2l1EsmMrptgn-8" vertex="1">
          <mxGeometry x="30" width="180" height="30" as="geometry">
            <mxRectangle width="180" height="30" as="alternateBounds" />
          </mxGeometry>
        </mxCell>
        <mxCell id="9jnryQzFTaQFDlPqfz2m-51" style="shape=tableRow;horizontal=0;startSize=0;swimlaneHead=0;swimlaneBody=0;fillColor=none;collapsible=0;dropTarget=0;points=[[0,0.5],[1,0.5]];portConstraint=eastwest;top=0;left=0;right=0;bottom=0;fontSize=13;" parent="JlGFgwWq2l1EsmMrptgn-1" vertex="1">
          <mxGeometry y="120" width="210" height="30" as="geometry" />
        </mxCell>
        <mxCell id="9jnryQzFTaQFDlPqfz2m-52" style="shape=partialRectangle;connectable=0;fillColor=none;top=0;left=0;bottom=0;right=0;editable=1;overflow=hidden;whiteSpace=wrap;html=1;fontSize=13;" parent="9jnryQzFTaQFDlPqfz2m-51" vertex="1">
          <mxGeometry width="30" height="30" as="geometry">
            <mxRectangle width="30" height="30" as="alternateBounds" />
          </mxGeometry>
        </mxCell>
        <mxCell id="9jnryQzFTaQFDlPqfz2m-53" value="Дата добавления" style="shape=partialRectangle;connectable=0;fillColor=none;top=0;left=0;bottom=0;right=0;align=left;spacingLeft=6;overflow=hidden;whiteSpace=wrap;html=1;fontSize=13;" parent="9jnryQzFTaQFDlPqfz2m-51" vertex="1">
          <mxGeometry x="30" width="180" height="30" as="geometry">
            <mxRectangle width="180" height="30" as="alternateBounds" />
          </mxGeometry>
        </mxCell>
        <mxCell id="rAu2PJi8LNX0W_mE_c-m-1" value="Дом" style="shape=table;startSize=30;container=1;collapsible=1;childLayout=tableLayout;fixedRows=1;rowLines=0;fontStyle=1;align=center;resizeLast=1;html=1;fontSize=14;" parent="1" vertex="1">
          <mxGeometry x="410" y="790" width="210" height="120" as="geometry">
            <mxRectangle x="840" y="1250" width="120" height="30" as="alternateBounds" />
          </mxGeometry>
        </mxCell>
        <mxCell id="rAu2PJi8LNX0W_mE_c-m-2" value="" style="shape=tableRow;horizontal=0;startSize=0;swimlaneHead=0;swimlaneBody=0;fillColor=none;collapsible=0;dropTarget=0;points=[[0,0.5],[1,0.5]];portConstraint=eastwest;top=0;left=0;right=0;bottom=1;fontSize=13;" parent="rAu2PJi8LNX0W_mE_c-m-1" vertex="1">
          <mxGeometry y="30" width="210" height="30" as="geometry" />
        </mxCell>
        <mxCell id="rAu2PJi8LNX0W_mE_c-m-3" value="PK" style="shape=partialRectangle;connectable=0;fillColor=none;top=0;left=0;bottom=0;right=0;fontStyle=1;overflow=hidden;whiteSpace=wrap;html=1;fontSize=13;" parent="rAu2PJi8LNX0W_mE_c-m-2" vertex="1">
          <mxGeometry width="30" height="30" as="geometry">
            <mxRectangle width="30" height="30" as="alternateBounds" />
          </mxGeometry>
        </mxCell>
        <mxCell id="rAu2PJi8LNX0W_mE_c-m-4" value="ID Дома" style="shape=partialRectangle;connectable=0;fillColor=none;top=0;left=0;bottom=0;right=0;align=left;spacingLeft=6;fontStyle=5;overflow=hidden;whiteSpace=wrap;html=1;fontSize=13;" parent="rAu2PJi8LNX0W_mE_c-m-2" vertex="1">
          <mxGeometry x="30" width="180" height="30" as="geometry">
            <mxRectangle width="180" height="30" as="alternateBounds" />
          </mxGeometry>
        </mxCell>
        <mxCell id="rAu2PJi8LNX0W_mE_c-m-5" value="" style="shape=tableRow;horizontal=0;startSize=0;swimlaneHead=0;swimlaneBody=0;fillColor=none;collapsible=0;dropTarget=0;points=[[0,0.5],[1,0.5]];portConstraint=eastwest;top=0;left=0;right=0;bottom=0;fontSize=13;" parent="rAu2PJi8LNX0W_mE_c-m-1" vertex="1">
          <mxGeometry y="60" width="210" height="30" as="geometry" />
        </mxCell>
        <mxCell id="rAu2PJi8LNX0W_mE_c-m-6" value="" style="shape=partialRectangle;connectable=0;fillColor=none;top=0;left=0;bottom=0;right=0;editable=1;overflow=hidden;whiteSpace=wrap;html=1;fontSize=13;" parent="rAu2PJi8LNX0W_mE_c-m-5" vertex="1">
          <mxGeometry width="30" height="30" as="geometry">
            <mxRectangle width="30" height="30" as="alternateBounds" />
          </mxGeometry>
        </mxCell>
        <mxCell id="rAu2PJi8LNX0W_mE_c-m-7" value="Название дома" style="shape=partialRectangle;connectable=0;fillColor=none;top=0;left=0;bottom=0;right=0;align=left;spacingLeft=6;overflow=hidden;whiteSpace=wrap;html=1;fontSize=13;" parent="rAu2PJi8LNX0W_mE_c-m-5" vertex="1">
          <mxGeometry x="30" width="180" height="30" as="geometry">
            <mxRectangle width="180" height="30" as="alternateBounds" />
          </mxGeometry>
        </mxCell>
        <mxCell id="rAu2PJi8LNX0W_mE_c-m-8" value="" style="shape=tableRow;horizontal=0;startSize=0;swimlaneHead=0;swimlaneBody=0;fillColor=none;collapsible=0;dropTarget=0;points=[[0,0.5],[1,0.5]];portConstraint=eastwest;top=0;left=0;right=0;bottom=0;fontSize=13;" parent="rAu2PJi8LNX0W_mE_c-m-1" vertex="1">
          <mxGeometry y="90" width="210" height="30" as="geometry" />
        </mxCell>
        <mxCell id="rAu2PJi8LNX0W_mE_c-m-9" value="" style="shape=partialRectangle;connectable=0;fillColor=none;top=0;left=0;bottom=0;right=0;editable=1;overflow=hidden;whiteSpace=wrap;html=1;fontSize=13;" parent="rAu2PJi8LNX0W_mE_c-m-8" vertex="1">
          <mxGeometry width="30" height="30" as="geometry">
            <mxRectangle width="30" height="30" as="alternateBounds" />
          </mxGeometry>
        </mxCell>
        <mxCell id="rAu2PJi8LNX0W_mE_c-m-10" value="Дата создания дома" style="shape=partialRectangle;connectable=0;fillColor=none;top=0;left=0;bottom=0;right=0;align=left;spacingLeft=6;overflow=hidden;whiteSpace=wrap;html=1;fontSize=13;" parent="rAu2PJi8LNX0W_mE_c-m-8" vertex="1">
          <mxGeometry x="30" width="180" height="30" as="geometry">
            <mxRectangle width="180" height="30" as="alternateBounds" />
          </mxGeometry>
        </mxCell>
        <mxCell id="26elQsSb4ACahZgw_jZ_-1" value="Приглашение в дом" style="shape=table;startSize=30;container=1;collapsible=1;childLayout=tableLayout;fixedRows=1;rowLines=0;fontStyle=1;align=center;resizeLast=1;html=1;fontSize=14;" parent="1" vertex="1">
          <mxGeometry x="870" y="830" width="210" height="270" as="geometry">
            <mxRectangle x="840" y="1250" width="120" height="30" as="alternateBounds" />
          </mxGeometry>
        </mxCell>
        <mxCell id="26elQsSb4ACahZgw_jZ_-2" value="" style="shape=tableRow;horizontal=0;startSize=0;swimlaneHead=0;swimlaneBody=0;fillColor=none;collapsible=0;dropTarget=0;points=[[0,0.5],[1,0.5]];portConstraint=eastwest;top=0;left=0;right=0;bottom=1;fontSize=13;" parent="26elQsSb4ACahZgw_jZ_-1" vertex="1">
          <mxGeometry y="30" width="210" height="30" as="geometry" />
        </mxCell>
        <mxCell id="26elQsSb4ACahZgw_jZ_-3" value="PK" style="shape=partialRectangle;connectable=0;fillColor=none;top=0;left=0;bottom=0;right=0;fontStyle=1;overflow=hidden;whiteSpace=wrap;html=1;fontSize=13;" parent="26elQsSb4ACahZgw_jZ_-2" vertex="1">
          <mxGeometry width="30" height="30" as="geometry">
            <mxRectangle width="30" height="30" as="alternateBounds" />
          </mxGeometry>
        </mxCell>
        <mxCell id="26elQsSb4ACahZgw_jZ_-4" value="ID Приглашения" style="shape=partialRectangle;connectable=0;fillColor=none;top=0;left=0;bottom=0;right=0;align=left;spacingLeft=6;fontStyle=5;overflow=hidden;whiteSpace=wrap;html=1;fontSize=13;" parent="26elQsSb4ACahZgw_jZ_-2" vertex="1">
          <mxGeometry x="30" width="180" height="30" as="geometry">
            <mxRectangle width="180" height="30" as="alternateBounds" />
          </mxGeometry>
        </mxCell>
        <mxCell id="26elQsSb4ACahZgw_jZ_-5" value="" style="shape=tableRow;horizontal=0;startSize=0;swimlaneHead=0;swimlaneBody=0;fillColor=none;collapsible=0;dropTarget=0;points=[[0,0.5],[1,0.5]];portConstraint=eastwest;top=0;left=0;right=0;bottom=0;fontSize=13;" parent="26elQsSb4ACahZgw_jZ_-1" vertex="1">
          <mxGeometry y="60" width="210" height="30" as="geometry" />
        </mxCell>
        <mxCell id="26elQsSb4ACahZgw_jZ_-6" value="FK" style="shape=partialRectangle;connectable=0;fillColor=none;top=0;left=0;bottom=0;right=0;editable=1;overflow=hidden;whiteSpace=wrap;html=1;fontSize=13;" parent="26elQsSb4ACahZgw_jZ_-5" vertex="1">
          <mxGeometry width="30" height="30" as="geometry">
            <mxRectangle width="30" height="30" as="alternateBounds" />
          </mxGeometry>
        </mxCell>
        <mxCell id="26elQsSb4ACahZgw_jZ_-7" value="ID Дома" style="shape=partialRectangle;connectable=0;fillColor=none;top=0;left=0;bottom=0;right=0;align=left;spacingLeft=6;overflow=hidden;whiteSpace=wrap;html=1;fontSize=13;" parent="26elQsSb4ACahZgw_jZ_-5" vertex="1">
          <mxGeometry x="30" width="180" height="30" as="geometry">
            <mxRectangle width="180" height="30" as="alternateBounds" />
          </mxGeometry>
        </mxCell>
        <mxCell id="26elQsSb4ACahZgw_jZ_-8" value="" style="shape=tableRow;horizontal=0;startSize=0;swimlaneHead=0;swimlaneBody=0;fillColor=none;collapsible=0;dropTarget=0;points=[[0,0.5],[1,0.5]];portConstraint=eastwest;top=0;left=0;right=0;bottom=0;fontSize=13;" parent="26elQsSb4ACahZgw_jZ_-1" vertex="1">
          <mxGeometry y="90" width="210" height="30" as="geometry" />
        </mxCell>
        <mxCell id="26elQsSb4ACahZgw_jZ_-9" value="FK" style="shape=partialRectangle;connectable=0;fillColor=none;top=0;left=0;bottom=0;right=0;editable=1;overflow=hidden;whiteSpace=wrap;html=1;fontSize=13;" parent="26elQsSb4ACahZgw_jZ_-8" vertex="1">
          <mxGeometry width="30" height="30" as="geometry">
            <mxRectangle width="30" height="30" as="alternateBounds" />
          </mxGeometry>
        </mxCell>
        <mxCell id="26elQsSb4ACahZgw_jZ_-10" value="ID Пользователя" style="shape=partialRectangle;connectable=0;fillColor=none;top=0;left=0;bottom=0;right=0;align=left;spacingLeft=6;overflow=hidden;whiteSpace=wrap;html=1;fontSize=13;" parent="26elQsSb4ACahZgw_jZ_-8" vertex="1">
          <mxGeometry x="30" width="180" height="30" as="geometry">
            <mxRectangle width="180" height="30" as="alternateBounds" />
          </mxGeometry>
        </mxCell>
        <mxCell id="26elQsSb4ACahZgw_jZ_-11" value="" style="shape=tableRow;horizontal=0;startSize=0;swimlaneHead=0;swimlaneBody=0;fillColor=none;collapsible=0;dropTarget=0;points=[[0,0.5],[1,0.5]];portConstraint=eastwest;top=0;left=0;right=0;bottom=0;fontSize=13;" parent="26elQsSb4ACahZgw_jZ_-1" vertex="1">
          <mxGeometry y="120" width="210" height="30" as="geometry" />
        </mxCell>
        <mxCell id="26elQsSb4ACahZgw_jZ_-12" value="" style="shape=partialRectangle;connectable=0;fillColor=none;top=0;left=0;bottom=0;right=0;editable=1;overflow=hidden;whiteSpace=wrap;html=1;fontSize=13;" parent="26elQsSb4ACahZgw_jZ_-11" vertex="1">
          <mxGeometry width="30" height="30" as="geometry">
            <mxRectangle width="30" height="30" as="alternateBounds" />
          </mxGeometry>
        </mxCell>
        <mxCell id="26elQsSb4ACahZgw_jZ_-13" value="E-mail приглашенного" style="shape=partialRectangle;connectable=0;fillColor=none;top=0;left=0;bottom=0;right=0;align=left;spacingLeft=6;overflow=hidden;whiteSpace=wrap;html=1;fontSize=13;" parent="26elQsSb4ACahZgw_jZ_-11" vertex="1">
          <mxGeometry x="30" width="180" height="30" as="geometry">
            <mxRectangle width="180" height="30" as="alternateBounds" />
          </mxGeometry>
        </mxCell>
        <mxCell id="26elQsSb4ACahZgw_jZ_-27" value="" style="shape=tableRow;horizontal=0;startSize=0;swimlaneHead=0;swimlaneBody=0;fillColor=none;collapsible=0;dropTarget=0;points=[[0,0.5],[1,0.5]];portConstraint=eastwest;top=0;left=0;right=0;bottom=0;fontSize=13;" parent="26elQsSb4ACahZgw_jZ_-1" vertex="1">
          <mxGeometry y="150" width="210" height="30" as="geometry" />
        </mxCell>
        <mxCell id="26elQsSb4ACahZgw_jZ_-28" value="" style="shape=partialRectangle;connectable=0;fillColor=none;top=0;left=0;bottom=0;right=0;editable=1;overflow=hidden;whiteSpace=wrap;html=1;fontSize=13;" parent="26elQsSb4ACahZgw_jZ_-27" vertex="1">
          <mxGeometry width="30" height="30" as="geometry">
            <mxRectangle width="30" height="30" as="alternateBounds" />
          </mxGeometry>
        </mxCell>
        <mxCell id="26elQsSb4ACahZgw_jZ_-29" value="Статус приглашения" style="shape=partialRectangle;connectable=0;fillColor=none;top=0;left=0;bottom=0;right=0;align=left;spacingLeft=6;overflow=hidden;whiteSpace=wrap;html=1;fontSize=13;" parent="26elQsSb4ACahZgw_jZ_-27" vertex="1">
          <mxGeometry x="30" width="180" height="30" as="geometry">
            <mxRectangle width="180" height="30" as="alternateBounds" />
          </mxGeometry>
        </mxCell>
        <mxCell id="26elQsSb4ACahZgw_jZ_-30" value="" style="shape=tableRow;horizontal=0;startSize=0;swimlaneHead=0;swimlaneBody=0;fillColor=none;collapsible=0;dropTarget=0;points=[[0,0.5],[1,0.5]];portConstraint=eastwest;top=0;left=0;right=0;bottom=0;fontSize=13;" parent="26elQsSb4ACahZgw_jZ_-1" vertex="1">
          <mxGeometry y="180" width="210" height="30" as="geometry" />
        </mxCell>
        <mxCell id="26elQsSb4ACahZgw_jZ_-31" value="" style="shape=partialRectangle;connectable=0;fillColor=none;top=0;left=0;bottom=0;right=0;editable=1;overflow=hidden;whiteSpace=wrap;html=1;fontSize=13;" parent="26elQsSb4ACahZgw_jZ_-30" vertex="1">
          <mxGeometry width="30" height="30" as="geometry">
            <mxRectangle width="30" height="30" as="alternateBounds" />
          </mxGeometry>
        </mxCell>
        <mxCell id="26elQsSb4ACahZgw_jZ_-32" value="Дата приглашения" style="shape=partialRectangle;connectable=0;fillColor=none;top=0;left=0;bottom=0;right=0;align=left;spacingLeft=6;overflow=hidden;whiteSpace=wrap;html=1;fontSize=13;" parent="26elQsSb4ACahZgw_jZ_-30" vertex="1">
          <mxGeometry x="30" width="180" height="30" as="geometry">
            <mxRectangle width="180" height="30" as="alternateBounds" />
          </mxGeometry>
        </mxCell>
        <mxCell id="26elQsSb4ACahZgw_jZ_-33" value="" style="shape=tableRow;horizontal=0;startSize=0;swimlaneHead=0;swimlaneBody=0;fillColor=none;collapsible=0;dropTarget=0;points=[[0,0.5],[1,0.5]];portConstraint=eastwest;top=0;left=0;right=0;bottom=0;fontSize=13;" parent="26elQsSb4ACahZgw_jZ_-1" vertex="1">
          <mxGeometry y="210" width="210" height="30" as="geometry" />
        </mxCell>
        <mxCell id="26elQsSb4ACahZgw_jZ_-34" value="" style="shape=partialRectangle;connectable=0;fillColor=none;top=0;left=0;bottom=0;right=0;editable=1;overflow=hidden;whiteSpace=wrap;html=1;fontSize=13;" parent="26elQsSb4ACahZgw_jZ_-33" vertex="1">
          <mxGeometry width="30" height="30" as="geometry">
            <mxRectangle width="30" height="30" as="alternateBounds" />
          </mxGeometry>
        </mxCell>
        <mxCell id="26elQsSb4ACahZgw_jZ_-35" value="Дата истечения" style="shape=partialRectangle;connectable=0;fillColor=none;top=0;left=0;bottom=0;right=0;align=left;spacingLeft=6;overflow=hidden;whiteSpace=wrap;html=1;fontSize=13;" parent="26elQsSb4ACahZgw_jZ_-33" vertex="1">
          <mxGeometry x="30" width="180" height="30" as="geometry">
            <mxRectangle width="180" height="30" as="alternateBounds" />
          </mxGeometry>
        </mxCell>
        <mxCell id="26elQsSb4ACahZgw_jZ_-36" value="" style="shape=tableRow;horizontal=0;startSize=0;swimlaneHead=0;swimlaneBody=0;fillColor=none;collapsible=0;dropTarget=0;points=[[0,0.5],[1,0.5]];portConstraint=eastwest;top=0;left=0;right=0;bottom=0;fontSize=13;" parent="26elQsSb4ACahZgw_jZ_-1" vertex="1">
          <mxGeometry y="240" width="210" height="30" as="geometry" />
        </mxCell>
        <mxCell id="26elQsSb4ACahZgw_jZ_-37" value="" style="shape=partialRectangle;connectable=0;fillColor=none;top=0;left=0;bottom=0;right=0;editable=1;overflow=hidden;whiteSpace=wrap;html=1;fontSize=13;" parent="26elQsSb4ACahZgw_jZ_-36" vertex="1">
          <mxGeometry width="30" height="30" as="geometry">
            <mxRectangle width="30" height="30" as="alternateBounds" />
          </mxGeometry>
        </mxCell>
        <mxCell id="26elQsSb4ACahZgw_jZ_-38" value="Токен" style="shape=partialRectangle;connectable=0;fillColor=none;top=0;left=0;bottom=0;right=0;align=left;spacingLeft=6;overflow=hidden;whiteSpace=wrap;html=1;fontSize=13;" parent="26elQsSb4ACahZgw_jZ_-36" vertex="1">
          <mxGeometry x="30" width="180" height="30" as="geometry">
            <mxRectangle width="180" height="30" as="alternateBounds" />
          </mxGeometry>
        </mxCell>
        <mxCell id="9jnryQzFTaQFDlPqfz2m-1" value="Комната" style="shape=table;startSize=30;container=1;collapsible=1;childLayout=tableLayout;fixedRows=1;rowLines=0;fontStyle=1;align=center;resizeLast=1;html=1;fontSize=14;" parent="1" vertex="1">
          <mxGeometry x="870" y="610" width="210" height="180" as="geometry">
            <mxRectangle x="840" y="1250" width="120" height="30" as="alternateBounds" />
          </mxGeometry>
        </mxCell>
        <mxCell id="9jnryQzFTaQFDlPqfz2m-2" value="" style="shape=tableRow;horizontal=0;startSize=0;swimlaneHead=0;swimlaneBody=0;fillColor=none;collapsible=0;dropTarget=0;points=[[0,0.5],[1,0.5]];portConstraint=eastwest;top=0;left=0;right=0;bottom=1;fontSize=13;" parent="9jnryQzFTaQFDlPqfz2m-1" vertex="1">
          <mxGeometry y="30" width="210" height="30" as="geometry" />
        </mxCell>
        <mxCell id="9jnryQzFTaQFDlPqfz2m-3" value="PK" style="shape=partialRectangle;connectable=0;fillColor=none;top=0;left=0;bottom=0;right=0;fontStyle=1;overflow=hidden;whiteSpace=wrap;html=1;fontSize=13;" parent="9jnryQzFTaQFDlPqfz2m-2" vertex="1">
          <mxGeometry width="30" height="30" as="geometry">
            <mxRectangle width="30" height="30" as="alternateBounds" />
          </mxGeometry>
        </mxCell>
        <mxCell id="9jnryQzFTaQFDlPqfz2m-4" value="ID Комнаты" style="shape=partialRectangle;connectable=0;fillColor=none;top=0;left=0;bottom=0;right=0;align=left;spacingLeft=6;fontStyle=5;overflow=hidden;whiteSpace=wrap;html=1;fontSize=13;" parent="9jnryQzFTaQFDlPqfz2m-2" vertex="1">
          <mxGeometry x="30" width="180" height="30" as="geometry">
            <mxRectangle width="180" height="30" as="alternateBounds" />
          </mxGeometry>
        </mxCell>
        <mxCell id="9jnryQzFTaQFDlPqfz2m-5" value="" style="shape=tableRow;horizontal=0;startSize=0;swimlaneHead=0;swimlaneBody=0;fillColor=none;collapsible=0;dropTarget=0;points=[[0,0.5],[1,0.5]];portConstraint=eastwest;top=0;left=0;right=0;bottom=0;fontSize=13;" parent="9jnryQzFTaQFDlPqfz2m-1" vertex="1">
          <mxGeometry y="60" width="210" height="30" as="geometry" />
        </mxCell>
        <mxCell id="9jnryQzFTaQFDlPqfz2m-6" value="FK" style="shape=partialRectangle;connectable=0;fillColor=none;top=0;left=0;bottom=0;right=0;editable=1;overflow=hidden;whiteSpace=wrap;html=1;fontSize=13;" parent="9jnryQzFTaQFDlPqfz2m-5" vertex="1">
          <mxGeometry width="30" height="30" as="geometry">
            <mxRectangle width="30" height="30" as="alternateBounds" />
          </mxGeometry>
        </mxCell>
        <mxCell id="9jnryQzFTaQFDlPqfz2m-7" value="ID Дома" style="shape=partialRectangle;connectable=0;fillColor=none;top=0;left=0;bottom=0;right=0;align=left;spacingLeft=6;overflow=hidden;whiteSpace=wrap;html=1;fontSize=13;" parent="9jnryQzFTaQFDlPqfz2m-5" vertex="1">
          <mxGeometry x="30" width="180" height="30" as="geometry">
            <mxRectangle width="180" height="30" as="alternateBounds" />
          </mxGeometry>
        </mxCell>
        <mxCell id="9jnryQzFTaQFDlPqfz2m-8" value="" style="shape=tableRow;horizontal=0;startSize=0;swimlaneHead=0;swimlaneBody=0;fillColor=none;collapsible=0;dropTarget=0;points=[[0,0.5],[1,0.5]];portConstraint=eastwest;top=0;left=0;right=0;bottom=0;fontSize=13;" parent="9jnryQzFTaQFDlPqfz2m-1" vertex="1">
          <mxGeometry y="90" width="210" height="30" as="geometry" />
        </mxCell>
        <mxCell id="9jnryQzFTaQFDlPqfz2m-9" value="" style="shape=partialRectangle;connectable=0;fillColor=none;top=0;left=0;bottom=0;right=0;editable=1;overflow=hidden;whiteSpace=wrap;html=1;fontSize=13;" parent="9jnryQzFTaQFDlPqfz2m-8" vertex="1">
          <mxGeometry width="30" height="30" as="geometry">
            <mxRectangle width="30" height="30" as="alternateBounds" />
          </mxGeometry>
        </mxCell>
        <mxCell id="9jnryQzFTaQFDlPqfz2m-10" value="Название комнаты" style="shape=partialRectangle;connectable=0;fillColor=none;top=0;left=0;bottom=0;right=0;align=left;spacingLeft=6;overflow=hidden;whiteSpace=wrap;html=1;fontSize=13;" parent="9jnryQzFTaQFDlPqfz2m-8" vertex="1">
          <mxGeometry x="30" width="180" height="30" as="geometry">
            <mxRectangle width="180" height="30" as="alternateBounds" />
          </mxGeometry>
        </mxCell>
        <mxCell id="9jnryQzFTaQFDlPqfz2m-11" value="" style="shape=tableRow;horizontal=0;startSize=0;swimlaneHead=0;swimlaneBody=0;fillColor=none;collapsible=0;dropTarget=0;points=[[0,0.5],[1,0.5]];portConstraint=eastwest;top=0;left=0;right=0;bottom=0;fontSize=13;" parent="9jnryQzFTaQFDlPqfz2m-1" vertex="1">
          <mxGeometry y="120" width="210" height="30" as="geometry" />
        </mxCell>
        <mxCell id="9jnryQzFTaQFDlPqfz2m-12" value="FK" style="shape=partialRectangle;connectable=0;fillColor=none;top=0;left=0;bottom=0;right=0;editable=1;overflow=hidden;whiteSpace=wrap;html=1;fontSize=13;" parent="9jnryQzFTaQFDlPqfz2m-11" vertex="1">
          <mxGeometry width="30" height="30" as="geometry">
            <mxRectangle width="30" height="30" as="alternateBounds" />
          </mxGeometry>
        </mxCell>
        <mxCell id="9jnryQzFTaQFDlPqfz2m-13" value="ID Типа комнаты" style="shape=partialRectangle;connectable=0;fillColor=none;top=0;left=0;bottom=0;right=0;align=left;spacingLeft=6;overflow=hidden;whiteSpace=wrap;html=1;fontSize=13;" parent="9jnryQzFTaQFDlPqfz2m-11" vertex="1">
          <mxGeometry x="30" width="180" height="30" as="geometry">
            <mxRectangle width="180" height="30" as="alternateBounds" />
          </mxGeometry>
        </mxCell>
        <mxCell id="9jnryQzFTaQFDlPqfz2m-14" value="" style="shape=tableRow;horizontal=0;startSize=0;swimlaneHead=0;swimlaneBody=0;fillColor=none;collapsible=0;dropTarget=0;points=[[0,0.5],[1,0.5]];portConstraint=eastwest;top=0;left=0;right=0;bottom=0;fontSize=13;" parent="9jnryQzFTaQFDlPqfz2m-1" vertex="1">
          <mxGeometry y="150" width="210" height="30" as="geometry" />
        </mxCell>
        <mxCell id="9jnryQzFTaQFDlPqfz2m-15" value="" style="shape=partialRectangle;connectable=0;fillColor=none;top=0;left=0;bottom=0;right=0;editable=1;overflow=hidden;whiteSpace=wrap;html=1;fontSize=13;" parent="9jnryQzFTaQFDlPqfz2m-14" vertex="1">
          <mxGeometry width="30" height="30" as="geometry">
            <mxRectangle width="30" height="30" as="alternateBounds" />
          </mxGeometry>
        </mxCell>
        <mxCell id="9jnryQzFTaQFDlPqfz2m-16" value="Дата создания" style="shape=partialRectangle;connectable=0;fillColor=none;top=0;left=0;bottom=0;right=0;align=left;spacingLeft=6;overflow=hidden;whiteSpace=wrap;html=1;fontSize=13;" parent="9jnryQzFTaQFDlPqfz2m-14" vertex="1">
          <mxGeometry x="30" width="180" height="30" as="geometry">
            <mxRectangle width="180" height="30" as="alternateBounds" />
          </mxGeometry>
        </mxCell>
        <mxCell id="9jnryQzFTaQFDlPqfz2m-17" value="Устройство" style="shape=table;startSize=30;container=1;collapsible=1;childLayout=tableLayout;fixedRows=1;rowLines=0;fontStyle=1;align=center;resizeLast=1;html=1;fontSize=14;" parent="1" vertex="1">
          <mxGeometry x="870" y="181" width="220" height="390" as="geometry">
            <mxRectangle x="840" y="1250" width="120" height="30" as="alternateBounds" />
          </mxGeometry>
        </mxCell>
        <mxCell id="9jnryQzFTaQFDlPqfz2m-18" value="" style="shape=tableRow;horizontal=0;startSize=0;swimlaneHead=0;swimlaneBody=0;fillColor=none;collapsible=0;dropTarget=0;points=[[0,0.5],[1,0.5]];portConstraint=eastwest;top=0;left=0;right=0;bottom=1;fontSize=13;" parent="9jnryQzFTaQFDlPqfz2m-17" vertex="1">
          <mxGeometry y="30" width="220" height="30" as="geometry" />
        </mxCell>
        <mxCell id="9jnryQzFTaQFDlPqfz2m-19" value="PK" style="shape=partialRectangle;connectable=0;fillColor=none;top=0;left=0;bottom=0;right=0;fontStyle=1;overflow=hidden;whiteSpace=wrap;html=1;fontSize=13;" parent="9jnryQzFTaQFDlPqfz2m-18" vertex="1">
          <mxGeometry width="30" height="30" as="geometry">
            <mxRectangle width="30" height="30" as="alternateBounds" />
          </mxGeometry>
        </mxCell>
        <mxCell id="9jnryQzFTaQFDlPqfz2m-20" value="ID Устройства" style="shape=partialRectangle;connectable=0;fillColor=none;top=0;left=0;bottom=0;right=0;align=left;spacingLeft=6;fontStyle=5;overflow=hidden;whiteSpace=wrap;html=1;fontSize=13;" parent="9jnryQzFTaQFDlPqfz2m-18" vertex="1">
          <mxGeometry x="30" width="190" height="30" as="geometry">
            <mxRectangle width="190" height="30" as="alternateBounds" />
          </mxGeometry>
        </mxCell>
        <mxCell id="9jnryQzFTaQFDlPqfz2m-21" value="" style="shape=tableRow;horizontal=0;startSize=0;swimlaneHead=0;swimlaneBody=0;fillColor=none;collapsible=0;dropTarget=0;points=[[0,0.5],[1,0.5]];portConstraint=eastwest;top=0;left=0;right=0;bottom=0;fontSize=13;" parent="9jnryQzFTaQFDlPqfz2m-17" vertex="1">
          <mxGeometry y="60" width="220" height="30" as="geometry" />
        </mxCell>
        <mxCell id="9jnryQzFTaQFDlPqfz2m-22" value="FK" style="shape=partialRectangle;connectable=0;fillColor=none;top=0;left=0;bottom=0;right=0;editable=1;overflow=hidden;whiteSpace=wrap;html=1;fontSize=13;" parent="9jnryQzFTaQFDlPqfz2m-21" vertex="1">
          <mxGeometry width="30" height="30" as="geometry">
            <mxRectangle width="30" height="30" as="alternateBounds" />
          </mxGeometry>
        </mxCell>
        <mxCell id="9jnryQzFTaQFDlPqfz2m-23" value="ID Дома" style="shape=partialRectangle;connectable=0;fillColor=none;top=0;left=0;bottom=0;right=0;align=left;spacingLeft=6;overflow=hidden;whiteSpace=wrap;html=1;fontSize=13;" parent="9jnryQzFTaQFDlPqfz2m-21" vertex="1">
          <mxGeometry x="30" width="190" height="30" as="geometry">
            <mxRectangle width="190" height="30" as="alternateBounds" />
          </mxGeometry>
        </mxCell>
        <mxCell id="9jnryQzFTaQFDlPqfz2m-24" value="" style="shape=tableRow;horizontal=0;startSize=0;swimlaneHead=0;swimlaneBody=0;fillColor=none;collapsible=0;dropTarget=0;points=[[0,0.5],[1,0.5]];portConstraint=eastwest;top=0;left=0;right=0;bottom=0;fontSize=13;" parent="9jnryQzFTaQFDlPqfz2m-17" vertex="1">
          <mxGeometry y="90" width="220" height="30" as="geometry" />
        </mxCell>
        <mxCell id="9jnryQzFTaQFDlPqfz2m-25" value="FK" style="shape=partialRectangle;connectable=0;fillColor=none;top=0;left=0;bottom=0;right=0;editable=1;overflow=hidden;whiteSpace=wrap;html=1;fontSize=13;" parent="9jnryQzFTaQFDlPqfz2m-24" vertex="1">
          <mxGeometry width="30" height="30" as="geometry">
            <mxRectangle width="30" height="30" as="alternateBounds" />
          </mxGeometry>
        </mxCell>
        <mxCell id="9jnryQzFTaQFDlPqfz2m-26" value="ID Комнаты" style="shape=partialRectangle;connectable=0;fillColor=none;top=0;left=0;bottom=0;right=0;align=left;spacingLeft=6;overflow=hidden;whiteSpace=wrap;html=1;fontSize=13;" parent="9jnryQzFTaQFDlPqfz2m-24" vertex="1">
          <mxGeometry x="30" width="190" height="30" as="geometry">
            <mxRectangle width="190" height="30" as="alternateBounds" />
          </mxGeometry>
        </mxCell>
        <mxCell id="9jnryQzFTaQFDlPqfz2m-27" value="" style="shape=tableRow;horizontal=0;startSize=0;swimlaneHead=0;swimlaneBody=0;fillColor=none;collapsible=0;dropTarget=0;points=[[0,0.5],[1,0.5]];portConstraint=eastwest;top=0;left=0;right=0;bottom=0;fontSize=13;" parent="9jnryQzFTaQFDlPqfz2m-17" vertex="1">
          <mxGeometry y="120" width="220" height="30" as="geometry" />
        </mxCell>
        <mxCell id="9jnryQzFTaQFDlPqfz2m-28" value="" style="shape=partialRectangle;connectable=0;fillColor=none;top=0;left=0;bottom=0;right=0;editable=1;overflow=hidden;whiteSpace=wrap;html=1;fontSize=13;" parent="9jnryQzFTaQFDlPqfz2m-27" vertex="1">
          <mxGeometry width="30" height="30" as="geometry">
            <mxRectangle width="30" height="30" as="alternateBounds" />
          </mxGeometry>
        </mxCell>
        <mxCell id="9jnryQzFTaQFDlPqfz2m-29" value="Уникальный номер (QR/UID)" style="shape=partialRectangle;connectable=0;fillColor=none;top=0;left=0;bottom=0;right=0;align=left;spacingLeft=6;overflow=hidden;whiteSpace=wrap;html=1;fontSize=13;" parent="9jnryQzFTaQFDlPqfz2m-27" vertex="1">
          <mxGeometry x="30" width="190" height="30" as="geometry">
            <mxRectangle width="190" height="30" as="alternateBounds" />
          </mxGeometry>
        </mxCell>
        <mxCell id="9jnryQzFTaQFDlPqfz2m-30" value="" style="shape=tableRow;horizontal=0;startSize=0;swimlaneHead=0;swimlaneBody=0;fillColor=none;collapsible=0;dropTarget=0;points=[[0,0.5],[1,0.5]];portConstraint=eastwest;top=0;left=0;right=0;bottom=0;fontSize=13;" parent="9jnryQzFTaQFDlPqfz2m-17" vertex="1">
          <mxGeometry y="150" width="220" height="30" as="geometry" />
        </mxCell>
        <mxCell id="9jnryQzFTaQFDlPqfz2m-31" value="" style="shape=partialRectangle;connectable=0;fillColor=none;top=0;left=0;bottom=0;right=0;editable=1;overflow=hidden;whiteSpace=wrap;html=1;fontSize=13;" parent="9jnryQzFTaQFDlPqfz2m-30" vertex="1">
          <mxGeometry width="30" height="30" as="geometry">
            <mxRectangle width="30" height="30" as="alternateBounds" />
          </mxGeometry>
        </mxCell>
        <mxCell id="9jnryQzFTaQFDlPqfz2m-32" value="Название устройства" style="shape=partialRectangle;connectable=0;fillColor=none;top=0;left=0;bottom=0;right=0;align=left;spacingLeft=6;overflow=hidden;whiteSpace=wrap;html=1;fontSize=13;" parent="9jnryQzFTaQFDlPqfz2m-30" vertex="1">
          <mxGeometry x="30" width="190" height="30" as="geometry">
            <mxRectangle width="190" height="30" as="alternateBounds" />
          </mxGeometry>
        </mxCell>
        <mxCell id="9jnryQzFTaQFDlPqfz2m-33" value="" style="shape=tableRow;horizontal=0;startSize=0;swimlaneHead=0;swimlaneBody=0;fillColor=none;collapsible=0;dropTarget=0;points=[[0,0.5],[1,0.5]];portConstraint=eastwest;top=0;left=0;right=0;bottom=0;fontSize=13;" parent="9jnryQzFTaQFDlPqfz2m-17" vertex="1">
          <mxGeometry y="180" width="220" height="30" as="geometry" />
        </mxCell>
        <mxCell id="9jnryQzFTaQFDlPqfz2m-34" value="FK" style="shape=partialRectangle;connectable=0;fillColor=none;top=0;left=0;bottom=0;right=0;editable=1;overflow=hidden;whiteSpace=wrap;html=1;fontSize=13;" parent="9jnryQzFTaQFDlPqfz2m-33" vertex="1">
          <mxGeometry width="30" height="30" as="geometry">
            <mxRectangle width="30" height="30" as="alternateBounds" />
          </mxGeometry>
        </mxCell>
        <mxCell id="9jnryQzFTaQFDlPqfz2m-35" value="ID Типa устройства" style="shape=partialRectangle;connectable=0;fillColor=none;top=0;left=0;bottom=0;right=0;align=left;spacingLeft=6;overflow=hidden;whiteSpace=wrap;html=1;fontSize=13;" parent="9jnryQzFTaQFDlPqfz2m-33" vertex="1">
          <mxGeometry x="30" width="190" height="30" as="geometry">
            <mxRectangle width="190" height="30" as="alternateBounds" />
          </mxGeometry>
        </mxCell>
        <mxCell id="9jnryQzFTaQFDlPqfz2m-36" value="" style="shape=tableRow;horizontal=0;startSize=0;swimlaneHead=0;swimlaneBody=0;fillColor=none;collapsible=0;dropTarget=0;points=[[0,0.5],[1,0.5]];portConstraint=eastwest;top=0;left=0;right=0;bottom=0;fontSize=13;" parent="9jnryQzFTaQFDlPqfz2m-17" vertex="1">
          <mxGeometry y="210" width="220" height="30" as="geometry" />
        </mxCell>
        <mxCell id="9jnryQzFTaQFDlPqfz2m-37" value="" style="shape=partialRectangle;connectable=0;fillColor=none;top=0;left=0;bottom=0;right=0;editable=1;overflow=hidden;whiteSpace=wrap;html=1;fontSize=13;" parent="9jnryQzFTaQFDlPqfz2m-36" vertex="1">
          <mxGeometry width="30" height="30" as="geometry">
            <mxRectangle width="30" height="30" as="alternateBounds" />
          </mxGeometry>
        </mxCell>
        <mxCell id="9jnryQzFTaQFDlPqfz2m-38" value="Статус устройства" style="shape=partialRectangle;connectable=0;fillColor=none;top=0;left=0;bottom=0;right=0;align=left;spacingLeft=6;overflow=hidden;whiteSpace=wrap;html=1;fontSize=13;" parent="9jnryQzFTaQFDlPqfz2m-36" vertex="1">
          <mxGeometry x="30" width="190" height="30" as="geometry">
            <mxRectangle width="190" height="30" as="alternateBounds" />
          </mxGeometry>
        </mxCell>
        <mxCell id="9jnryQzFTaQFDlPqfz2m-39" value="" style="shape=tableRow;horizontal=0;startSize=0;swimlaneHead=0;swimlaneBody=0;fillColor=none;collapsible=0;dropTarget=0;points=[[0,0.5],[1,0.5]];portConstraint=eastwest;top=0;left=0;right=0;bottom=0;fontSize=13;" parent="9jnryQzFTaQFDlPqfz2m-17" vertex="1">
          <mxGeometry y="240" width="220" height="30" as="geometry" />
        </mxCell>
        <mxCell id="9jnryQzFTaQFDlPqfz2m-40" value="" style="shape=partialRectangle;connectable=0;fillColor=none;top=0;left=0;bottom=0;right=0;editable=1;overflow=hidden;whiteSpace=wrap;html=1;fontSize=13;" parent="9jnryQzFTaQFDlPqfz2m-39" vertex="1">
          <mxGeometry width="30" height="30" as="geometry">
            <mxRectangle width="30" height="30" as="alternateBounds" />
          </mxGeometry>
        </mxCell>
        <mxCell id="9jnryQzFTaQFDlPqfz2m-41" value="Состояние устройства" style="shape=partialRectangle;connectable=0;fillColor=none;top=0;left=0;bottom=0;right=0;align=left;spacingLeft=6;overflow=hidden;whiteSpace=wrap;html=1;fontSize=13;" parent="9jnryQzFTaQFDlPqfz2m-39" vertex="1">
          <mxGeometry x="30" width="190" height="30" as="geometry">
            <mxRectangle width="190" height="30" as="alternateBounds" />
          </mxGeometry>
        </mxCell>
        <mxCell id="NTIIh1emXEbPf_NlZvZJ-53" value="" style="shape=tableRow;horizontal=0;startSize=0;swimlaneHead=0;swimlaneBody=0;fillColor=none;collapsible=0;dropTarget=0;points=[[0,0.5],[1,0.5]];portConstraint=eastwest;top=0;left=0;right=0;bottom=0;fontSize=13;" parent="9jnryQzFTaQFDlPqfz2m-17" vertex="1">
          <mxGeometry y="270" width="220" height="30" as="geometry" />
        </mxCell>
        <mxCell id="NTIIh1emXEbPf_NlZvZJ-54" value="" style="shape=partialRectangle;connectable=0;fillColor=none;top=0;left=0;bottom=0;right=0;editable=1;overflow=hidden;whiteSpace=wrap;html=1;fontSize=13;" parent="NTIIh1emXEbPf_NlZvZJ-53" vertex="1">
          <mxGeometry width="30" height="30" as="geometry">
            <mxRectangle width="30" height="30" as="alternateBounds" />
          </mxGeometry>
        </mxCell>
        <mxCell id="NTIIh1emXEbPf_NlZvZJ-55" value="Цвет" style="shape=partialRectangle;connectable=0;fillColor=none;top=0;left=0;bottom=0;right=0;align=left;spacingLeft=6;overflow=hidden;whiteSpace=wrap;html=1;fontSize=13;" parent="NTIIh1emXEbPf_NlZvZJ-53" vertex="1">
          <mxGeometry x="30" width="190" height="30" as="geometry">
            <mxRectangle width="190" height="30" as="alternateBounds" />
          </mxGeometry>
        </mxCell>
        <mxCell id="pmK3BQI6PZ28xwM8QnD4-55" value="" style="shape=tableRow;horizontal=0;startSize=0;swimlaneHead=0;swimlaneBody=0;fillColor=none;collapsible=0;dropTarget=0;points=[[0,0.5],[1,0.5]];portConstraint=eastwest;top=0;left=0;right=0;bottom=0;fontSize=13;" parent="9jnryQzFTaQFDlPqfz2m-17" vertex="1">
          <mxGeometry y="300" width="220" height="30" as="geometry" />
        </mxCell>
        <mxCell id="pmK3BQI6PZ28xwM8QnD4-56" value="" style="shape=partialRectangle;connectable=0;fillColor=none;top=0;left=0;bottom=0;right=0;editable=1;overflow=hidden;whiteSpace=wrap;html=1;fontSize=13;" parent="pmK3BQI6PZ28xwM8QnD4-55" vertex="1">
          <mxGeometry width="30" height="30" as="geometry">
            <mxRectangle width="30" height="30" as="alternateBounds" />
          </mxGeometry>
        </mxCell>
        <mxCell id="pmK3BQI6PZ28xwM8QnD4-57" value="Яркость" style="shape=partialRectangle;connectable=0;fillColor=none;top=0;left=0;bottom=0;right=0;align=left;spacingLeft=6;overflow=hidden;whiteSpace=wrap;html=1;fontSize=13;" parent="pmK3BQI6PZ28xwM8QnD4-55" vertex="1">
          <mxGeometry x="30" width="190" height="30" as="geometry">
            <mxRectangle width="190" height="30" as="alternateBounds" />
          </mxGeometry>
        </mxCell>
        <mxCell id="pmK3BQI6PZ28xwM8QnD4-89" value="" style="shape=tableRow;horizontal=0;startSize=0;swimlaneHead=0;swimlaneBody=0;fillColor=none;collapsible=0;dropTarget=0;points=[[0,0.5],[1,0.5]];portConstraint=eastwest;top=0;left=0;right=0;bottom=0;fontSize=13;" parent="9jnryQzFTaQFDlPqfz2m-17" vertex="1">
          <mxGeometry y="330" width="220" height="30" as="geometry" />
        </mxCell>
        <mxCell id="pmK3BQI6PZ28xwM8QnD4-90" value="" style="shape=partialRectangle;connectable=0;fillColor=none;top=0;left=0;bottom=0;right=0;editable=1;overflow=hidden;whiteSpace=wrap;html=1;fontSize=13;" parent="pmK3BQI6PZ28xwM8QnD4-89" vertex="1">
          <mxGeometry width="30" height="30" as="geometry">
            <mxRectangle width="30" height="30" as="alternateBounds" />
          </mxGeometry>
        </mxCell>
        <mxCell id="pmK3BQI6PZ28xwM8QnD4-91" value="Энергосбережение" style="shape=partialRectangle;connectable=0;fillColor=none;top=0;left=0;bottom=0;right=0;align=left;spacingLeft=6;overflow=hidden;whiteSpace=wrap;html=1;fontSize=13;" parent="pmK3BQI6PZ28xwM8QnD4-89" vertex="1">
          <mxGeometry x="30" width="190" height="30" as="geometry">
            <mxRectangle width="190" height="30" as="alternateBounds" />
          </mxGeometry>
        </mxCell>
        <mxCell id="pmK3BQI6PZ28xwM8QnD4-92" value="" style="shape=tableRow;horizontal=0;startSize=0;swimlaneHead=0;swimlaneBody=0;fillColor=none;collapsible=0;dropTarget=0;points=[[0,0.5],[1,0.5]];portConstraint=eastwest;top=0;left=0;right=0;bottom=0;fontSize=13;" parent="9jnryQzFTaQFDlPqfz2m-17" vertex="1">
          <mxGeometry y="360" width="220" height="30" as="geometry" />
        </mxCell>
        <mxCell id="pmK3BQI6PZ28xwM8QnD4-93" value="" style="shape=partialRectangle;connectable=0;fillColor=none;top=0;left=0;bottom=0;right=0;editable=1;overflow=hidden;whiteSpace=wrap;html=1;fontSize=13;" parent="pmK3BQI6PZ28xwM8QnD4-92" vertex="1">
          <mxGeometry width="30" height="30" as="geometry">
            <mxRectangle width="30" height="30" as="alternateBounds" />
          </mxGeometry>
        </mxCell>
        <mxCell id="pmK3BQI6PZ28xwM8QnD4-94" value="Режим работы" style="shape=partialRectangle;connectable=0;fillColor=none;top=0;left=0;bottom=0;right=0;align=left;spacingLeft=6;overflow=hidden;whiteSpace=wrap;html=1;fontSize=13;" parent="pmK3BQI6PZ28xwM8QnD4-92" vertex="1">
          <mxGeometry x="30" width="190" height="30" as="geometry">
            <mxRectangle width="190" height="30" as="alternateBounds" />
          </mxGeometry>
        </mxCell>
        <mxCell id="msOjZPhEaWF1NCGpBara-1" value="Сценарий" style="shape=table;startSize=30;container=1;collapsible=1;childLayout=tableLayout;fixedRows=1;rowLines=0;fontStyle=1;align=center;resizeLast=1;html=1;fontSize=14;" parent="1" vertex="1">
          <mxGeometry x="1320" y="70" width="210" height="270" as="geometry">
            <mxRectangle x="840" y="1250" width="120" height="30" as="alternateBounds" />
          </mxGeometry>
        </mxCell>
        <mxCell id="msOjZPhEaWF1NCGpBara-2" value="" style="shape=tableRow;horizontal=0;startSize=0;swimlaneHead=0;swimlaneBody=0;fillColor=none;collapsible=0;dropTarget=0;points=[[0,0.5],[1,0.5]];portConstraint=eastwest;top=0;left=0;right=0;bottom=1;fontSize=13;" parent="msOjZPhEaWF1NCGpBara-1" vertex="1">
          <mxGeometry y="30" width="210" height="30" as="geometry" />
        </mxCell>
        <mxCell id="msOjZPhEaWF1NCGpBara-3" value="PK" style="shape=partialRectangle;connectable=0;fillColor=none;top=0;left=0;bottom=0;right=0;fontStyle=1;overflow=hidden;whiteSpace=wrap;html=1;fontSize=13;" parent="msOjZPhEaWF1NCGpBara-2" vertex="1">
          <mxGeometry width="30" height="30" as="geometry">
            <mxRectangle width="30" height="30" as="alternateBounds" />
          </mxGeometry>
        </mxCell>
        <mxCell id="msOjZPhEaWF1NCGpBara-4" value="ID Сценария" style="shape=partialRectangle;connectable=0;fillColor=none;top=0;left=0;bottom=0;right=0;align=left;spacingLeft=6;fontStyle=5;overflow=hidden;whiteSpace=wrap;html=1;fontSize=13;" parent="msOjZPhEaWF1NCGpBara-2" vertex="1">
          <mxGeometry x="30" width="180" height="30" as="geometry">
            <mxRectangle width="180" height="30" as="alternateBounds" />
          </mxGeometry>
        </mxCell>
        <mxCell id="msOjZPhEaWF1NCGpBara-5" value="" style="shape=tableRow;horizontal=0;startSize=0;swimlaneHead=0;swimlaneBody=0;fillColor=none;collapsible=0;dropTarget=0;points=[[0,0.5],[1,0.5]];portConstraint=eastwest;top=0;left=0;right=0;bottom=0;fontSize=13;" parent="msOjZPhEaWF1NCGpBara-1" vertex="1">
          <mxGeometry y="60" width="210" height="30" as="geometry" />
        </mxCell>
        <mxCell id="msOjZPhEaWF1NCGpBara-6" value="FK" style="shape=partialRectangle;connectable=0;fillColor=none;top=0;left=0;bottom=0;right=0;editable=1;overflow=hidden;whiteSpace=wrap;html=1;fontSize=13;" parent="msOjZPhEaWF1NCGpBara-5" vertex="1">
          <mxGeometry width="30" height="30" as="geometry">
            <mxRectangle width="30" height="30" as="alternateBounds" />
          </mxGeometry>
        </mxCell>
        <mxCell id="msOjZPhEaWF1NCGpBara-7" value="ID Дома" style="shape=partialRectangle;connectable=0;fillColor=none;top=0;left=0;bottom=0;right=0;align=left;spacingLeft=6;overflow=hidden;whiteSpace=wrap;html=1;fontSize=13;" parent="msOjZPhEaWF1NCGpBara-5" vertex="1">
          <mxGeometry x="30" width="180" height="30" as="geometry">
            <mxRectangle width="180" height="30" as="alternateBounds" />
          </mxGeometry>
        </mxCell>
        <mxCell id="msOjZPhEaWF1NCGpBara-8" value="" style="shape=tableRow;horizontal=0;startSize=0;swimlaneHead=0;swimlaneBody=0;fillColor=none;collapsible=0;dropTarget=0;points=[[0,0.5],[1,0.5]];portConstraint=eastwest;top=0;left=0;right=0;bottom=0;fontSize=13;" parent="msOjZPhEaWF1NCGpBara-1" vertex="1">
          <mxGeometry y="90" width="210" height="30" as="geometry" />
        </mxCell>
        <mxCell id="msOjZPhEaWF1NCGpBara-9" value="" style="shape=partialRectangle;connectable=0;fillColor=none;top=0;left=0;bottom=0;right=0;editable=1;overflow=hidden;whiteSpace=wrap;html=1;fontSize=13;" parent="msOjZPhEaWF1NCGpBara-8" vertex="1">
          <mxGeometry width="30" height="30" as="geometry">
            <mxRectangle width="30" height="30" as="alternateBounds" />
          </mxGeometry>
        </mxCell>
        <mxCell id="msOjZPhEaWF1NCGpBara-10" value="Название сценария" style="shape=partialRectangle;connectable=0;fillColor=none;top=0;left=0;bottom=0;right=0;align=left;spacingLeft=6;overflow=hidden;whiteSpace=wrap;html=1;fontSize=13;" parent="msOjZPhEaWF1NCGpBara-8" vertex="1">
          <mxGeometry x="30" width="180" height="30" as="geometry">
            <mxRectangle width="180" height="30" as="alternateBounds" />
          </mxGeometry>
        </mxCell>
        <mxCell id="sXhWUIeAX1MyCIohkJmK-1" value="" style="shape=tableRow;horizontal=0;startSize=0;swimlaneHead=0;swimlaneBody=0;fillColor=none;collapsible=0;dropTarget=0;points=[[0,0.5],[1,0.5]];portConstraint=eastwest;top=0;left=0;right=0;bottom=0;fontSize=13;" parent="msOjZPhEaWF1NCGpBara-1" vertex="1">
          <mxGeometry y="120" width="210" height="30" as="geometry" />
        </mxCell>
        <mxCell id="sXhWUIeAX1MyCIohkJmK-2" value="" style="shape=partialRectangle;connectable=0;fillColor=none;top=0;left=0;bottom=0;right=0;editable=1;overflow=hidden;whiteSpace=wrap;html=1;fontSize=13;" parent="sXhWUIeAX1MyCIohkJmK-1" vertex="1">
          <mxGeometry width="30" height="30" as="geometry">
            <mxRectangle width="30" height="30" as="alternateBounds" />
          </mxGeometry>
        </mxCell>
        <mxCell id="sXhWUIeAX1MyCIohkJmK-3" value="Статус сценария" style="shape=partialRectangle;connectable=0;fillColor=none;top=0;left=0;bottom=0;right=0;align=left;spacingLeft=6;overflow=hidden;whiteSpace=wrap;html=1;fontSize=13;" parent="sXhWUIeAX1MyCIohkJmK-1" vertex="1">
          <mxGeometry x="30" width="180" height="30" as="geometry">
            <mxRectangle width="180" height="30" as="alternateBounds" />
          </mxGeometry>
        </mxCell>
        <mxCell id="sXhWUIeAX1MyCIohkJmK-4" value="" style="shape=tableRow;horizontal=0;startSize=0;swimlaneHead=0;swimlaneBody=0;fillColor=none;collapsible=0;dropTarget=0;points=[[0,0.5],[1,0.5]];portConstraint=eastwest;top=0;left=0;right=0;bottom=0;fontSize=13;" parent="msOjZPhEaWF1NCGpBara-1" vertex="1">
          <mxGeometry y="150" width="210" height="30" as="geometry" />
        </mxCell>
        <mxCell id="sXhWUIeAX1MyCIohkJmK-5" value="" style="shape=partialRectangle;connectable=0;fillColor=none;top=0;left=0;bottom=0;right=0;editable=1;overflow=hidden;whiteSpace=wrap;html=1;fontSize=13;" parent="sXhWUIeAX1MyCIohkJmK-4" vertex="1">
          <mxGeometry width="30" height="30" as="geometry">
            <mxRectangle width="30" height="30" as="alternateBounds" />
          </mxGeometry>
        </mxCell>
        <mxCell id="sXhWUIeAX1MyCIohkJmK-6" value="Состояние сценария" style="shape=partialRectangle;connectable=0;fillColor=none;top=0;left=0;bottom=0;right=0;align=left;spacingLeft=6;overflow=hidden;whiteSpace=wrap;html=1;fontSize=13;" parent="sXhWUIeAX1MyCIohkJmK-4" vertex="1">
          <mxGeometry x="30" width="180" height="30" as="geometry">
            <mxRectangle width="180" height="30" as="alternateBounds" />
          </mxGeometry>
        </mxCell>
        <mxCell id="pmK3BQI6PZ28xwM8QnD4-95" value="" style="shape=tableRow;horizontal=0;startSize=0;swimlaneHead=0;swimlaneBody=0;fillColor=none;collapsible=0;dropTarget=0;points=[[0,0.5],[1,0.5]];portConstraint=eastwest;top=0;left=0;right=0;bottom=0;fontSize=13;" parent="msOjZPhEaWF1NCGpBara-1" vertex="1">
          <mxGeometry y="180" width="210" height="30" as="geometry" />
        </mxCell>
        <mxCell id="pmK3BQI6PZ28xwM8QnD4-96" value="" style="shape=partialRectangle;connectable=0;fillColor=none;top=0;left=0;bottom=0;right=0;editable=1;overflow=hidden;whiteSpace=wrap;html=1;fontSize=13;" parent="pmK3BQI6PZ28xwM8QnD4-95" vertex="1">
          <mxGeometry width="30" height="30" as="geometry">
            <mxRectangle width="30" height="30" as="alternateBounds" />
          </mxGeometry>
        </mxCell>
        <mxCell id="pmK3BQI6PZ28xwM8QnD4-97" value="Статус всех устройств" style="shape=partialRectangle;connectable=0;fillColor=none;top=0;left=0;bottom=0;right=0;align=left;spacingLeft=6;overflow=hidden;whiteSpace=wrap;html=1;fontSize=13;" parent="pmK3BQI6PZ28xwM8QnD4-95" vertex="1">
          <mxGeometry x="30" width="180" height="30" as="geometry">
            <mxRectangle width="180" height="30" as="alternateBounds" />
          </mxGeometry>
        </mxCell>
        <mxCell id="pmK3BQI6PZ28xwM8QnD4-98" value="" style="shape=tableRow;horizontal=0;startSize=0;swimlaneHead=0;swimlaneBody=0;fillColor=none;collapsible=0;dropTarget=0;points=[[0,0.5],[1,0.5]];portConstraint=eastwest;top=0;left=0;right=0;bottom=0;fontSize=13;" parent="msOjZPhEaWF1NCGpBara-1" vertex="1">
          <mxGeometry y="210" width="210" height="30" as="geometry" />
        </mxCell>
        <mxCell id="pmK3BQI6PZ28xwM8QnD4-99" value="" style="shape=partialRectangle;connectable=0;fillColor=none;top=0;left=0;bottom=0;right=0;editable=1;overflow=hidden;whiteSpace=wrap;html=1;fontSize=13;" parent="pmK3BQI6PZ28xwM8QnD4-98" vertex="1">
          <mxGeometry width="30" height="30" as="geometry">
            <mxRectangle width="30" height="30" as="alternateBounds" />
          </mxGeometry>
        </mxCell>
        <mxCell id="pmK3BQI6PZ28xwM8QnD4-100" value="Дата старта" style="shape=partialRectangle;connectable=0;fillColor=none;top=0;left=0;bottom=0;right=0;align=left;spacingLeft=6;overflow=hidden;whiteSpace=wrap;html=1;fontSize=13;" parent="pmK3BQI6PZ28xwM8QnD4-98" vertex="1">
          <mxGeometry x="30" width="180" height="30" as="geometry">
            <mxRectangle width="180" height="30" as="alternateBounds" />
          </mxGeometry>
        </mxCell>
        <mxCell id="pmK3BQI6PZ28xwM8QnD4-141" value="" style="shape=tableRow;horizontal=0;startSize=0;swimlaneHead=0;swimlaneBody=0;fillColor=none;collapsible=0;dropTarget=0;points=[[0,0.5],[1,0.5]];portConstraint=eastwest;top=0;left=0;right=0;bottom=0;fontSize=13;" parent="msOjZPhEaWF1NCGpBara-1" vertex="1">
          <mxGeometry y="240" width="210" height="30" as="geometry" />
        </mxCell>
        <mxCell id="pmK3BQI6PZ28xwM8QnD4-142" value="" style="shape=partialRectangle;connectable=0;fillColor=none;top=0;left=0;bottom=0;right=0;editable=1;overflow=hidden;whiteSpace=wrap;html=1;fontSize=13;" parent="pmK3BQI6PZ28xwM8QnD4-141" vertex="1">
          <mxGeometry width="30" height="30" as="geometry">
            <mxRectangle width="30" height="30" as="alternateBounds" />
          </mxGeometry>
        </mxCell>
        <mxCell id="pmK3BQI6PZ28xwM8QnD4-143" value="Дата окончания" style="shape=partialRectangle;connectable=0;fillColor=none;top=0;left=0;bottom=0;right=0;align=left;spacingLeft=6;overflow=hidden;whiteSpace=wrap;html=1;fontSize=13;" parent="pmK3BQI6PZ28xwM8QnD4-141" vertex="1">
          <mxGeometry x="30" width="180" height="30" as="geometry">
            <mxRectangle width="180" height="30" as="alternateBounds" />
          </mxGeometry>
        </mxCell>
        <mxCell id="2K7CP2__RePSDR-108cN-1" value="" style="edgeStyle=orthogonalEdgeStyle;fontSize=13;html=1;endArrow=ERzeroToMany;startArrow=ERmandOne;rounded=0;startFill=0;endFill=0;endSize=9;startSize=9;exitX=1;exitY=0.5;exitDx=0;exitDy=0;entryX=0;entryY=0.5;entryDx=0;entryDy=0;" parent="1" source="vt8VXtntIdCtcG0MY4LM-2" target="JlGFgwWq2l1EsmMrptgn-2" edge="1">
          <mxGeometry width="100" height="100" relative="1" as="geometry">
            <mxPoint x="320" y="130" as="sourcePoint" />
            <mxPoint x="420" y="490" as="targetPoint" />
            <Array as="points">
              <mxPoint x="380" y="365" />
              <mxPoint x="380" y="475" />
            </Array>
          </mxGeometry>
        </mxCell>
        <mxCell id="2K7CP2__RePSDR-108cN-2" value="Является" style="edgeLabel;html=1;align=center;verticalAlign=middle;resizable=0;points=[];fontSize=12;textDirection=vertical-lr;horizontal=0;" parent="2K7CP2__RePSDR-108cN-1" vertex="1" connectable="0">
          <mxGeometry x="-0.0443" relative="1" as="geometry">
            <mxPoint y="51" as="offset" />
          </mxGeometry>
        </mxCell>
        <mxCell id="Jv8VZgZ0JXVdDLaTpJ7--3" value="Относится" style="edgeStyle=orthogonalEdgeStyle;rounded=0;orthogonalLoop=1;jettySize=auto;html=1;entryX=0;entryY=0.5;entryDx=0;entryDy=0;startArrow=ERzeroToMany;startFill=0;endArrow=ERmandOne;endFill=0;startSize=9;endSize=9;exitX=0;exitY=0.5;exitDx=0;exitDy=0;strokeColor=default;fontSize=12;textDirection=vertical-lr;jumpStyle=none;horizontal=0;" parent="1" source="JlGFgwWq2l1EsmMrptgn-5" target="rAu2PJi8LNX0W_mE_c-m-2" edge="1">
          <mxGeometry relative="1" as="geometry">
            <mxPoint x="480" y="715" as="sourcePoint" />
            <mxPoint x="491" y="550" as="targetPoint" />
            <Array as="points">
              <mxPoint x="380" y="505" />
              <mxPoint x="380" y="835" />
            </Array>
          </mxGeometry>
        </mxCell>
        <mxCell id="Jv8VZgZ0JXVdDLaTpJ7--4" value="&lt;font style=&quot;font-size: 12px;&quot;&gt;Содержит&lt;/font&gt;" style="edgeStyle=orthogonalEdgeStyle;rounded=0;orthogonalLoop=1;jettySize=auto;html=1;exitX=1;exitY=0.5;exitDx=0;exitDy=0;entryX=0;entryY=0.5;entryDx=0;entryDy=0;startSize=9;endSize=9;startArrow=ERzeroToMany;startFill=0;endArrow=ERmandOne;endFill=0;textDirection=vertical-lr;horizontal=0;" parent="1" source="rAu2PJi8LNX0W_mE_c-m-2" target="9jnryQzFTaQFDlPqfz2m-5" edge="1">
          <mxGeometry x="0.0516" relative="1" as="geometry">
            <Array as="points">
              <mxPoint x="750" y="835" />
              <mxPoint x="750" y="685" />
            </Array>
            <mxPoint as="offset" />
          </mxGeometry>
        </mxCell>
        <mxCell id="Jv8VZgZ0JXVdDLaTpJ7--5" value="Содержит" style="edgeStyle=orthogonalEdgeStyle;rounded=0;orthogonalLoop=1;jettySize=auto;html=1;exitX=1;exitY=0.5;exitDx=0;exitDy=0;fontSize=12;startArrow=ERzeroToMany;startFill=0;startSize=9;endSize=9;endArrow=ERmandOne;endFill=0;textDirection=vertical-lr;horizontal=0;entryX=0;entryY=0.5;entryDx=0;entryDy=0;" parent="1" source="rAu2PJi8LNX0W_mE_c-m-2" target="9jnryQzFTaQFDlPqfz2m-21" edge="1">
          <mxGeometry x="-0.1094" relative="1" as="geometry">
            <mxPoint x="870" y="355" as="targetPoint" />
            <Array as="points">
              <mxPoint x="710" y="835" />
              <mxPoint x="710" y="256" />
            </Array>
            <mxPoint as="offset" />
          </mxGeometry>
        </mxCell>
        <mxCell id="Jv8VZgZ0JXVdDLaTpJ7--7" value="Имеет" style="edgeStyle=orthogonalEdgeStyle;rounded=0;orthogonalLoop=1;jettySize=auto;html=1;exitX=1;exitY=0.5;exitDx=0;exitDy=0;entryX=0;entryY=0.5;entryDx=0;entryDy=0;fontSize=12;startSize=9;endSize=9;startArrow=ERzeroToMany;startFill=0;endArrow=ERmandOne;endFill=0;textDirection=vertical-lr;horizontal=0;" parent="1" source="rAu2PJi8LNX0W_mE_c-m-2" target="26elQsSb4ACahZgw_jZ_-5" edge="1">
          <mxGeometry x="0.303" relative="1" as="geometry">
            <Array as="points">
              <mxPoint x="790" y="835" />
              <mxPoint x="790" y="905" />
            </Array>
            <mxPoint as="offset" />
          </mxGeometry>
        </mxCell>
        <mxCell id="Jv8VZgZ0JXVdDLaTpJ7--8" value="Отправляет" style="edgeStyle=orthogonalEdgeStyle;rounded=0;orthogonalLoop=1;jettySize=auto;html=1;exitX=0;exitY=0.5;exitDx=0;exitDy=0;entryX=0;entryY=0.5;entryDx=0;entryDy=0;fontSize=12;spacingTop=0;spacingLeft=0;horizontal=1;endSize=9;startSize=9;endArrow=ERmandOne;endFill=0;startArrow=ERzeroToMany;startFill=0;" parent="1" source="vt8VXtntIdCtcG0MY4LM-2" target="26elQsSb4ACahZgw_jZ_-8" edge="1">
          <mxGeometry x="0.563" relative="1" as="geometry">
            <Array as="points">
              <mxPoint x="20" y="365" />
              <mxPoint x="20" y="560" />
              <mxPoint x="340" y="560" />
              <mxPoint x="340" y="950" />
              <mxPoint x="790" y="950" />
              <mxPoint x="790" y="935" />
            </Array>
            <mxPoint as="offset" />
          </mxGeometry>
        </mxCell>
        <mxCell id="Jv8VZgZ0JXVdDLaTpJ7--9" value="Имеет" style="edgeStyle=orthogonalEdgeStyle;rounded=0;orthogonalLoop=1;jettySize=auto;html=1;entryX=0;entryY=0.5;entryDx=0;entryDy=0;exitX=0;exitY=0.5;exitDx=0;exitDy=0;fontSize=12;endSize=9;startSize=9;startArrow=ERmandOne;startFill=0;endArrow=ERzeroToMany;endFill=0;" parent="1" source="rAu2PJi8LNX0W_mE_c-m-2" target="msOjZPhEaWF1NCGpBara-5" edge="1">
          <mxGeometry x="-0.1472" relative="1" as="geometry">
            <mxPoint x="670" y="710" as="sourcePoint" />
            <Array as="points">
              <mxPoint x="380" y="835" />
              <mxPoint x="380" y="760" />
              <mxPoint x="670" y="760" />
              <mxPoint x="670" y="145" />
            </Array>
            <mxPoint as="offset" />
          </mxGeometry>
        </mxCell>
        <mxCell id="Jv8VZgZ0JXVdDLaTpJ7--10" value="Имеет" style="edgeStyle=orthogonalEdgeStyle;rounded=0;orthogonalLoop=1;jettySize=auto;html=1;exitX=1;exitY=0.5;exitDx=0;exitDy=0;entryX=0.006;entryY=0.649;entryDx=0;entryDy=0;fontSize=12;startSize=9;endSize=9;startArrow=ERmandOne;startFill=0;endArrow=ERoneToMany;endFill=0;entryPerimeter=0;" parent="1" source="msOjZPhEaWF1NCGpBara-2" target="pmK3BQI6PZ28xwM8QnD4-107" edge="1">
          <mxGeometry x="-0.0619" relative="1" as="geometry">
            <Array as="points">
              <mxPoint x="1580" y="115" />
              <mxPoint x="1580" y="370" />
              <mxPoint x="1280" y="370" />
              <mxPoint x="1280" y="650" />
            </Array>
            <mxPoint as="offset" />
            <mxPoint x="1320" y="705" as="targetPoint" />
          </mxGeometry>
        </mxCell>
        <mxCell id="Jv8VZgZ0JXVdDLaTpJ7--11" value="Участвует" style="edgeStyle=orthogonalEdgeStyle;rounded=0;orthogonalLoop=1;jettySize=auto;html=1;exitX=1;exitY=0.5;exitDx=0;exitDy=0;startSize=9;endSize=9;fontSize=12;startArrow=ERmandOne;startFill=0;endArrow=ERzeroToMany;endFill=0;" parent="1" source="9jnryQzFTaQFDlPqfz2m-18" edge="1">
          <mxGeometry x="-0.6032" relative="1" as="geometry">
            <Array as="points">
              <mxPoint x="1200" y="226" />
              <mxPoint x="1200" y="675" />
            </Array>
            <mxPoint as="offset" />
            <mxPoint x="1320" y="675" as="targetPoint" />
          </mxGeometry>
        </mxCell>
        <mxCell id="Jv8VZgZ0JXVdDLaTpJ7--12" value="Имеет" style="edgeStyle=orthogonalEdgeStyle;rounded=0;orthogonalLoop=1;jettySize=auto;html=1;exitX=0;exitY=0.5;exitDx=0;exitDy=0;entryX=0;entryY=0.5;entryDx=0;entryDy=0;endSize=9;startSize=9;fontSize=12;startArrow=ERmandOne;startFill=0;endArrow=ERzeroToMany;endFill=0;" parent="1" source="msOjZPhEaWF1NCGpBara-2" target="pmK3BQI6PZ28xwM8QnD4-162" edge="1">
          <mxGeometry x="0.0494" relative="1" as="geometry">
            <Array as="points">
              <mxPoint x="1240" y="115" />
              <mxPoint x="1240" y="455" />
            </Array>
            <mxPoint as="offset" />
            <mxPoint x="1320" y="455" as="targetPoint" />
          </mxGeometry>
        </mxCell>
        <mxCell id="Jv8VZgZ0JXVdDLaTpJ7--17" value="Содержит" style="edgeStyle=orthogonalEdgeStyle;rounded=0;orthogonalLoop=1;jettySize=auto;html=1;exitX=0;exitY=0.5;exitDx=0;exitDy=0;entryX=0;entryY=0.5;entryDx=0;entryDy=0;fontSize=12;endSize=9;startSize=9;textDirection=vertical-lr;endArrow=ERzeroToOne;endFill=0;startArrow=ERzeroToMany;startFill=0;horizontal=0;" parent="1" source="9jnryQzFTaQFDlPqfz2m-2" target="9jnryQzFTaQFDlPqfz2m-24" edge="1">
          <mxGeometry relative="1" as="geometry">
            <Array as="points">
              <mxPoint x="830" y="655" />
              <mxPoint x="830" y="286" />
            </Array>
          </mxGeometry>
        </mxCell>
        <mxCell id="pmK3BQI6PZ28xwM8QnD4-1" value="Тип устройства" style="shape=table;startSize=30;container=1;collapsible=1;childLayout=tableLayout;fixedRows=1;rowLines=0;fontStyle=1;align=center;resizeLast=1;html=1;fontSize=14;" parent="1" vertex="1">
          <mxGeometry x="1320" y="760" width="210" height="90" as="geometry">
            <mxRectangle x="840" y="1250" width="120" height="30" as="alternateBounds" />
          </mxGeometry>
        </mxCell>
        <mxCell id="pmK3BQI6PZ28xwM8QnD4-2" value="" style="shape=tableRow;horizontal=0;startSize=0;swimlaneHead=0;swimlaneBody=0;fillColor=none;collapsible=0;dropTarget=0;points=[[0,0.5],[1,0.5]];portConstraint=eastwest;top=0;left=0;right=0;bottom=1;fontSize=13;" parent="pmK3BQI6PZ28xwM8QnD4-1" vertex="1">
          <mxGeometry y="30" width="210" height="30" as="geometry" />
        </mxCell>
        <mxCell id="pmK3BQI6PZ28xwM8QnD4-3" value="PK" style="shape=partialRectangle;connectable=0;fillColor=none;top=0;left=0;bottom=0;right=0;fontStyle=1;overflow=hidden;whiteSpace=wrap;html=1;fontSize=13;" parent="pmK3BQI6PZ28xwM8QnD4-2" vertex="1">
          <mxGeometry width="30" height="30" as="geometry">
            <mxRectangle width="30" height="30" as="alternateBounds" />
          </mxGeometry>
        </mxCell>
        <mxCell id="pmK3BQI6PZ28xwM8QnD4-4" value="ID Типа устройства" style="shape=partialRectangle;connectable=0;fillColor=none;top=0;left=0;bottom=0;right=0;align=left;spacingLeft=6;fontStyle=5;overflow=hidden;whiteSpace=wrap;html=1;fontSize=13;" parent="pmK3BQI6PZ28xwM8QnD4-2" vertex="1">
          <mxGeometry x="30" width="180" height="30" as="geometry">
            <mxRectangle width="180" height="30" as="alternateBounds" />
          </mxGeometry>
        </mxCell>
        <mxCell id="pmK3BQI6PZ28xwM8QnD4-5" value="" style="shape=tableRow;horizontal=0;startSize=0;swimlaneHead=0;swimlaneBody=0;fillColor=none;collapsible=0;dropTarget=0;points=[[0,0.5],[1,0.5]];portConstraint=eastwest;top=0;left=0;right=0;bottom=0;fontSize=13;" parent="pmK3BQI6PZ28xwM8QnD4-1" vertex="1">
          <mxGeometry y="60" width="210" height="30" as="geometry" />
        </mxCell>
        <mxCell id="pmK3BQI6PZ28xwM8QnD4-6" value="" style="shape=partialRectangle;connectable=0;fillColor=none;top=0;left=0;bottom=0;right=0;editable=1;overflow=hidden;whiteSpace=wrap;html=1;fontSize=13;" parent="pmK3BQI6PZ28xwM8QnD4-5" vertex="1">
          <mxGeometry width="30" height="30" as="geometry">
            <mxRectangle width="30" height="30" as="alternateBounds" />
          </mxGeometry>
        </mxCell>
        <mxCell id="pmK3BQI6PZ28xwM8QnD4-7" value="Название типа устройства" style="shape=partialRectangle;connectable=0;fillColor=none;top=0;left=0;bottom=0;right=0;align=left;spacingLeft=6;overflow=hidden;whiteSpace=wrap;html=1;fontSize=13;" parent="pmK3BQI6PZ28xwM8QnD4-5" vertex="1">
          <mxGeometry x="30" width="180" height="30" as="geometry">
            <mxRectangle width="180" height="30" as="alternateBounds" />
          </mxGeometry>
        </mxCell>
        <mxCell id="pmK3BQI6PZ28xwM8QnD4-17" value="Тип комнаты" style="shape=table;startSize=30;container=1;collapsible=1;childLayout=tableLayout;fixedRows=1;rowLines=0;fontStyle=1;align=center;resizeLast=1;html=1;fontSize=14;" parent="1" vertex="1">
          <mxGeometry x="1320" y="890" width="210" height="90" as="geometry">
            <mxRectangle x="840" y="1250" width="120" height="30" as="alternateBounds" />
          </mxGeometry>
        </mxCell>
        <mxCell id="pmK3BQI6PZ28xwM8QnD4-18" value="" style="shape=tableRow;horizontal=0;startSize=0;swimlaneHead=0;swimlaneBody=0;fillColor=none;collapsible=0;dropTarget=0;points=[[0,0.5],[1,0.5]];portConstraint=eastwest;top=0;left=0;right=0;bottom=1;fontSize=13;" parent="pmK3BQI6PZ28xwM8QnD4-17" vertex="1">
          <mxGeometry y="30" width="210" height="30" as="geometry" />
        </mxCell>
        <mxCell id="pmK3BQI6PZ28xwM8QnD4-19" value="PK" style="shape=partialRectangle;connectable=0;fillColor=none;top=0;left=0;bottom=0;right=0;fontStyle=1;overflow=hidden;whiteSpace=wrap;html=1;fontSize=13;" parent="pmK3BQI6PZ28xwM8QnD4-18" vertex="1">
          <mxGeometry width="30" height="30" as="geometry">
            <mxRectangle width="30" height="30" as="alternateBounds" />
          </mxGeometry>
        </mxCell>
        <mxCell id="pmK3BQI6PZ28xwM8QnD4-20" value="ID Типа комнаты" style="shape=partialRectangle;connectable=0;fillColor=none;top=0;left=0;bottom=0;right=0;align=left;spacingLeft=6;fontStyle=5;overflow=hidden;whiteSpace=wrap;html=1;fontSize=13;" parent="pmK3BQI6PZ28xwM8QnD4-18" vertex="1">
          <mxGeometry x="30" width="180" height="30" as="geometry">
            <mxRectangle width="180" height="30" as="alternateBounds" />
          </mxGeometry>
        </mxCell>
        <mxCell id="pmK3BQI6PZ28xwM8QnD4-21" value="" style="shape=tableRow;horizontal=0;startSize=0;swimlaneHead=0;swimlaneBody=0;fillColor=none;collapsible=0;dropTarget=0;points=[[0,0.5],[1,0.5]];portConstraint=eastwest;top=0;left=0;right=0;bottom=0;fontSize=13;" parent="pmK3BQI6PZ28xwM8QnD4-17" vertex="1">
          <mxGeometry y="60" width="210" height="30" as="geometry" />
        </mxCell>
        <mxCell id="pmK3BQI6PZ28xwM8QnD4-22" value="" style="shape=partialRectangle;connectable=0;fillColor=none;top=0;left=0;bottom=0;right=0;editable=1;overflow=hidden;whiteSpace=wrap;html=1;fontSize=13;" parent="pmK3BQI6PZ28xwM8QnD4-21" vertex="1">
          <mxGeometry width="30" height="30" as="geometry">
            <mxRectangle width="30" height="30" as="alternateBounds" />
          </mxGeometry>
        </mxCell>
        <mxCell id="pmK3BQI6PZ28xwM8QnD4-23" value="Название типа комнаты" style="shape=partialRectangle;connectable=0;fillColor=none;top=0;left=0;bottom=0;right=0;align=left;spacingLeft=6;overflow=hidden;whiteSpace=wrap;html=1;fontSize=13;" parent="pmK3BQI6PZ28xwM8QnD4-21" vertex="1">
          <mxGeometry x="30" width="180" height="30" as="geometry">
            <mxRectangle width="180" height="30" as="alternateBounds" />
          </mxGeometry>
        </mxCell>
        <mxCell id="pmK3BQI6PZ28xwM8QnD4-24" value="Имеет" style="edgeStyle=orthogonalEdgeStyle;rounded=0;orthogonalLoop=1;jettySize=auto;html=1;exitX=1;exitY=0.5;exitDx=0;exitDy=0;entryX=0;entryY=0.5;entryDx=0;entryDy=0;fontSize=12;startSize=9;endSize=9;startArrow=ERoneToMany;startFill=0;endArrow=ERmandOne;endFill=0;" parent="1" source="9jnryQzFTaQFDlPqfz2m-11" target="pmK3BQI6PZ28xwM8QnD4-18" edge="1">
          <mxGeometry x="-0.2462" relative="1" as="geometry">
            <Array as="points">
              <mxPoint x="1120" y="745" />
              <mxPoint x="1120" y="935" />
            </Array>
            <mxPoint as="offset" />
            <mxPoint x="1100" y="470" as="sourcePoint" />
            <mxPoint x="1340" y="760" as="targetPoint" />
          </mxGeometry>
        </mxCell>
        <mxCell id="pmK3BQI6PZ28xwM8QnD4-26" value="Имеет" style="edgeStyle=orthogonalEdgeStyle;rounded=0;orthogonalLoop=1;jettySize=auto;html=1;exitX=1;exitY=0.5;exitDx=0;exitDy=0;entryX=0;entryY=0.5;entryDx=0;entryDy=0;fontSize=12;startSize=9;endSize=9;startArrow=ERoneToMany;startFill=0;endArrow=ERmandOne;endFill=0;" parent="1" source="9jnryQzFTaQFDlPqfz2m-33" target="pmK3BQI6PZ28xwM8QnD4-2" edge="1">
          <mxGeometry x="-0.5672" relative="1" as="geometry">
            <Array as="points">
              <mxPoint x="1160" y="376" />
              <mxPoint x="1160" y="805" />
            </Array>
            <mxPoint as="offset" />
            <mxPoint x="1130" y="600" as="sourcePoint" />
            <mxPoint x="1370" y="600" as="targetPoint" />
          </mxGeometry>
        </mxCell>
        <mxCell id="pmK3BQI6PZ28xwM8QnD4-106" value="Действие сценария" style="shape=table;startSize=30;container=1;collapsible=1;childLayout=tableLayout;fixedRows=1;rowLines=0;fontStyle=1;align=center;resizeLast=1;html=1;fontSize=14;" parent="1" vertex="1">
          <mxGeometry x="1320" y="600" width="210" height="120" as="geometry">
            <mxRectangle x="840" y="1250" width="120" height="30" as="alternateBounds" />
          </mxGeometry>
        </mxCell>
        <mxCell id="pmK3BQI6PZ28xwM8QnD4-107" value="" style="shape=tableRow;horizontal=0;startSize=0;swimlaneHead=0;swimlaneBody=0;fillColor=none;collapsible=0;dropTarget=0;points=[[0,0.5],[1,0.5]];portConstraint=eastwest;top=0;left=0;right=0;bottom=0;fontSize=13;" parent="pmK3BQI6PZ28xwM8QnD4-106" vertex="1">
          <mxGeometry y="30" width="210" height="30" as="geometry" />
        </mxCell>
        <mxCell id="pmK3BQI6PZ28xwM8QnD4-108" value="&lt;b&gt;FK&lt;/b&gt;" style="shape=partialRectangle;connectable=0;fillColor=none;top=0;left=0;bottom=0;right=0;editable=1;overflow=hidden;whiteSpace=wrap;html=1;fontSize=13;" parent="pmK3BQI6PZ28xwM8QnD4-107" vertex="1">
          <mxGeometry width="30" height="30" as="geometry">
            <mxRectangle width="30" height="30" as="alternateBounds" />
          </mxGeometry>
        </mxCell>
        <mxCell id="pmK3BQI6PZ28xwM8QnD4-109" value="&lt;b&gt;ID Сценария&lt;/b&gt;" style="shape=partialRectangle;connectable=0;fillColor=none;top=0;left=0;bottom=0;right=0;align=left;spacingLeft=6;overflow=hidden;whiteSpace=wrap;html=1;fontSize=13;" parent="pmK3BQI6PZ28xwM8QnD4-107" vertex="1">
          <mxGeometry x="30" width="180" height="30" as="geometry">
            <mxRectangle width="180" height="30" as="alternateBounds" />
          </mxGeometry>
        </mxCell>
        <mxCell id="pmK3BQI6PZ28xwM8QnD4-110" value="" style="shape=tableRow;horizontal=0;startSize=0;swimlaneHead=0;swimlaneBody=0;fillColor=none;collapsible=0;dropTarget=0;points=[[0,0.5],[1,0.5]];portConstraint=eastwest;top=0;left=0;right=0;bottom=1;fontSize=13;" parent="pmK3BQI6PZ28xwM8QnD4-106" vertex="1">
          <mxGeometry y="60" width="210" height="30" as="geometry" />
        </mxCell>
        <mxCell id="pmK3BQI6PZ28xwM8QnD4-111" value="&lt;b&gt;FK&lt;/b&gt;" style="shape=partialRectangle;connectable=0;fillColor=none;top=0;left=0;bottom=0;right=0;editable=1;overflow=hidden;whiteSpace=wrap;html=1;fontSize=13;" parent="pmK3BQI6PZ28xwM8QnD4-110" vertex="1">
          <mxGeometry width="30" height="30" as="geometry">
            <mxRectangle width="30" height="30" as="alternateBounds" />
          </mxGeometry>
        </mxCell>
        <mxCell id="pmK3BQI6PZ28xwM8QnD4-112" value="&lt;b&gt;ID Устройства&lt;/b&gt;" style="shape=partialRectangle;connectable=0;fillColor=none;top=0;left=0;bottom=0;right=0;align=left;spacingLeft=6;overflow=hidden;whiteSpace=wrap;html=1;fontSize=13;" parent="pmK3BQI6PZ28xwM8QnD4-110" vertex="1">
          <mxGeometry x="30" width="180" height="30" as="geometry">
            <mxRectangle width="180" height="30" as="alternateBounds" />
          </mxGeometry>
        </mxCell>
        <mxCell id="pmK3BQI6PZ28xwM8QnD4-113" style="shape=tableRow;horizontal=0;startSize=0;swimlaneHead=0;swimlaneBody=0;fillColor=none;collapsible=0;dropTarget=0;points=[[0,0.5],[1,0.5]];portConstraint=eastwest;top=0;left=0;right=0;bottom=0;fontSize=13;" parent="pmK3BQI6PZ28xwM8QnD4-106" vertex="1">
          <mxGeometry y="90" width="210" height="30" as="geometry" />
        </mxCell>
        <mxCell id="pmK3BQI6PZ28xwM8QnD4-114" style="shape=partialRectangle;connectable=0;fillColor=none;top=0;left=0;bottom=0;right=0;editable=1;overflow=hidden;whiteSpace=wrap;html=1;fontSize=13;" parent="pmK3BQI6PZ28xwM8QnD4-113" vertex="1">
          <mxGeometry width="30" height="30" as="geometry">
            <mxRectangle width="30" height="30" as="alternateBounds" />
          </mxGeometry>
        </mxCell>
        <mxCell id="pmK3BQI6PZ28xwM8QnD4-115" value="Тип действия" style="shape=partialRectangle;connectable=0;fillColor=none;top=0;left=0;bottom=0;right=0;align=left;spacingLeft=6;overflow=hidden;whiteSpace=wrap;html=1;fontSize=13;" parent="pmK3BQI6PZ28xwM8QnD4-113" vertex="1">
          <mxGeometry x="30" width="180" height="30" as="geometry">
            <mxRectangle width="180" height="30" as="alternateBounds" />
          </mxGeometry>
        </mxCell>
        <mxCell id="pmK3BQI6PZ28xwM8QnD4-144" value="День недели" style="shape=table;startSize=30;container=1;collapsible=1;childLayout=tableLayout;fixedRows=1;rowLines=0;fontStyle=1;align=center;resizeLast=1;html=1;fontSize=14;" parent="1" vertex="1">
          <mxGeometry x="1320" y="1010" width="210" height="120" as="geometry">
            <mxRectangle x="840" y="1250" width="120" height="30" as="alternateBounds" />
          </mxGeometry>
        </mxCell>
        <mxCell id="pmK3BQI6PZ28xwM8QnD4-145" value="" style="shape=tableRow;horizontal=0;startSize=0;swimlaneHead=0;swimlaneBody=0;fillColor=none;collapsible=0;dropTarget=0;points=[[0,0.5],[1,0.5]];portConstraint=eastwest;top=0;left=0;right=0;bottom=1;fontSize=13;" parent="pmK3BQI6PZ28xwM8QnD4-144" vertex="1">
          <mxGeometry y="30" width="210" height="30" as="geometry" />
        </mxCell>
        <mxCell id="pmK3BQI6PZ28xwM8QnD4-146" value="PK" style="shape=partialRectangle;connectable=0;fillColor=none;top=0;left=0;bottom=0;right=0;fontStyle=1;overflow=hidden;whiteSpace=wrap;html=1;fontSize=13;" parent="pmK3BQI6PZ28xwM8QnD4-145" vertex="1">
          <mxGeometry width="30" height="30" as="geometry">
            <mxRectangle width="30" height="30" as="alternateBounds" />
          </mxGeometry>
        </mxCell>
        <mxCell id="pmK3BQI6PZ28xwM8QnD4-147" value="ID Дня недели" style="shape=partialRectangle;connectable=0;fillColor=none;top=0;left=0;bottom=0;right=0;align=left;spacingLeft=6;fontStyle=5;overflow=hidden;whiteSpace=wrap;html=1;fontSize=13;" parent="pmK3BQI6PZ28xwM8QnD4-145" vertex="1">
          <mxGeometry x="30" width="180" height="30" as="geometry">
            <mxRectangle width="180" height="30" as="alternateBounds" />
          </mxGeometry>
        </mxCell>
        <mxCell id="DDKelqxIKTQDkPOL8XkB-1" value="" style="shape=tableRow;horizontal=0;startSize=0;swimlaneHead=0;swimlaneBody=0;fillColor=none;collapsible=0;dropTarget=0;points=[[0,0.5],[1,0.5]];portConstraint=eastwest;top=0;left=0;right=0;bottom=0;fontSize=13;" parent="pmK3BQI6PZ28xwM8QnD4-144" vertex="1">
          <mxGeometry y="60" width="210" height="30" as="geometry" />
        </mxCell>
        <mxCell id="DDKelqxIKTQDkPOL8XkB-2" value="" style="shape=partialRectangle;connectable=0;fillColor=none;top=0;left=0;bottom=0;right=0;editable=1;overflow=hidden;whiteSpace=wrap;html=1;fontSize=13;" parent="DDKelqxIKTQDkPOL8XkB-1" vertex="1">
          <mxGeometry width="30" height="30" as="geometry">
            <mxRectangle width="30" height="30" as="alternateBounds" />
          </mxGeometry>
        </mxCell>
        <mxCell id="DDKelqxIKTQDkPOL8XkB-3" value="Название дня недели" style="shape=partialRectangle;connectable=0;fillColor=none;top=0;left=0;bottom=0;right=0;align=left;spacingLeft=6;overflow=hidden;whiteSpace=wrap;html=1;fontSize=13;" parent="DDKelqxIKTQDkPOL8XkB-1" vertex="1">
          <mxGeometry x="30" width="180" height="30" as="geometry">
            <mxRectangle width="180" height="30" as="alternateBounds" />
          </mxGeometry>
        </mxCell>
        <mxCell id="pmK3BQI6PZ28xwM8QnD4-148" value="" style="shape=tableRow;horizontal=0;startSize=0;swimlaneHead=0;swimlaneBody=0;fillColor=none;collapsible=0;dropTarget=0;points=[[0,0.5],[1,0.5]];portConstraint=eastwest;top=0;left=0;right=0;bottom=0;fontSize=13;" parent="pmK3BQI6PZ28xwM8QnD4-144" vertex="1">
          <mxGeometry y="90" width="210" height="30" as="geometry" />
        </mxCell>
        <mxCell id="pmK3BQI6PZ28xwM8QnD4-149" value="" style="shape=partialRectangle;connectable=0;fillColor=none;top=0;left=0;bottom=0;right=0;editable=1;overflow=hidden;whiteSpace=wrap;html=1;fontSize=13;" parent="pmK3BQI6PZ28xwM8QnD4-148" vertex="1">
          <mxGeometry width="30" height="30" as="geometry">
            <mxRectangle width="30" height="30" as="alternateBounds" />
          </mxGeometry>
        </mxCell>
        <mxCell id="pmK3BQI6PZ28xwM8QnD4-150" value="Название дня недели" style="shape=partialRectangle;connectable=0;fillColor=none;top=0;left=0;bottom=0;right=0;align=left;spacingLeft=6;overflow=hidden;whiteSpace=wrap;html=1;fontSize=13;" parent="pmK3BQI6PZ28xwM8QnD4-148" vertex="1">
          <mxGeometry x="30" width="180" height="30" as="geometry">
            <mxRectangle width="180" height="30" as="alternateBounds" />
          </mxGeometry>
        </mxCell>
        <mxCell id="pmK3BQI6PZ28xwM8QnD4-151" value="Имеет" style="edgeStyle=orthogonalEdgeStyle;rounded=0;orthogonalLoop=1;jettySize=auto;html=1;exitX=0;exitY=0.5;exitDx=0;exitDy=0;entryX=0;entryY=0.5;entryDx=0;entryDy=0;fontSize=12;startSize=9;endSize=9;startArrow=ERoneToMany;startFill=0;endArrow=ERmandOne;endFill=0;" parent="1" source="pmK3BQI6PZ28xwM8QnD4-165" target="pmK3BQI6PZ28xwM8QnD4-145" edge="1">
          <mxGeometry x="-0.4932" relative="1" as="geometry">
            <Array as="points">
              <mxPoint x="1240" y="485" />
              <mxPoint x="1240" y="1055" />
            </Array>
            <mxPoint y="1" as="offset" />
            <mxPoint x="1320" y="485" as="sourcePoint" />
            <mxPoint x="1410" y="830" as="targetPoint" />
          </mxGeometry>
        </mxCell>
        <mxCell id="pmK3BQI6PZ28xwM8QnD4-161" value="Расписание сценария" style="shape=table;startSize=30;container=1;collapsible=1;childLayout=tableLayout;fixedRows=1;rowLines=0;fontStyle=1;align=center;resizeLast=1;html=1;fontSize=14;" parent="1" vertex="1">
          <mxGeometry x="1320" y="410" width="210" height="150" as="geometry">
            <mxRectangle x="840" y="1250" width="120" height="30" as="alternateBounds" />
          </mxGeometry>
        </mxCell>
        <mxCell id="pmK3BQI6PZ28xwM8QnD4-162" value="" style="shape=tableRow;horizontal=0;startSize=0;swimlaneHead=0;swimlaneBody=0;fillColor=none;collapsible=0;dropTarget=0;points=[[0,0.5],[1,0.5]];portConstraint=eastwest;top=0;left=0;right=0;bottom=0;fontSize=13;" parent="pmK3BQI6PZ28xwM8QnD4-161" vertex="1">
          <mxGeometry y="30" width="210" height="30" as="geometry" />
        </mxCell>
        <mxCell id="pmK3BQI6PZ28xwM8QnD4-163" value="&lt;b&gt;FK&lt;/b&gt;" style="shape=partialRectangle;connectable=0;fillColor=none;top=0;left=0;bottom=0;right=0;editable=1;overflow=hidden;whiteSpace=wrap;html=1;fontSize=13;" parent="pmK3BQI6PZ28xwM8QnD4-162" vertex="1">
          <mxGeometry width="30" height="30" as="geometry">
            <mxRectangle width="30" height="30" as="alternateBounds" />
          </mxGeometry>
        </mxCell>
        <mxCell id="pmK3BQI6PZ28xwM8QnD4-164" value="ID Сценария" style="shape=partialRectangle;connectable=0;fillColor=none;top=0;left=0;bottom=0;right=0;align=left;spacingLeft=6;overflow=hidden;whiteSpace=wrap;html=1;fontSize=13;fontStyle=1" parent="pmK3BQI6PZ28xwM8QnD4-162" vertex="1">
          <mxGeometry x="30" width="180" height="30" as="geometry">
            <mxRectangle width="180" height="30" as="alternateBounds" />
          </mxGeometry>
        </mxCell>
        <mxCell id="pmK3BQI6PZ28xwM8QnD4-165" value="" style="shape=tableRow;horizontal=0;startSize=0;swimlaneHead=0;swimlaneBody=0;fillColor=none;collapsible=0;dropTarget=0;points=[[0,0.5],[1,0.5]];portConstraint=eastwest;top=0;left=0;right=0;bottom=1;fontSize=13;" parent="pmK3BQI6PZ28xwM8QnD4-161" vertex="1">
          <mxGeometry y="60" width="210" height="30" as="geometry" />
        </mxCell>
        <mxCell id="pmK3BQI6PZ28xwM8QnD4-166" value="&lt;b&gt;FK&lt;/b&gt;" style="shape=partialRectangle;connectable=0;fillColor=none;top=0;left=0;bottom=0;right=0;editable=1;overflow=hidden;whiteSpace=wrap;html=1;fontSize=13;" parent="pmK3BQI6PZ28xwM8QnD4-165" vertex="1">
          <mxGeometry width="30" height="30" as="geometry">
            <mxRectangle width="30" height="30" as="alternateBounds" />
          </mxGeometry>
        </mxCell>
        <mxCell id="pmK3BQI6PZ28xwM8QnD4-167" value="&lt;b&gt;ID Дня недели&lt;/b&gt;" style="shape=partialRectangle;connectable=0;fillColor=none;top=0;left=0;bottom=0;right=0;align=left;spacingLeft=6;overflow=hidden;whiteSpace=wrap;html=1;fontSize=13;" parent="pmK3BQI6PZ28xwM8QnD4-165" vertex="1">
          <mxGeometry x="30" width="180" height="30" as="geometry">
            <mxRectangle width="180" height="30" as="alternateBounds" />
          </mxGeometry>
        </mxCell>
        <mxCell id="pmK3BQI6PZ28xwM8QnD4-168" style="shape=tableRow;horizontal=0;startSize=0;swimlaneHead=0;swimlaneBody=0;fillColor=none;collapsible=0;dropTarget=0;points=[[0,0.5],[1,0.5]];portConstraint=eastwest;top=0;left=0;right=0;bottom=0;fontSize=13;" parent="pmK3BQI6PZ28xwM8QnD4-161" vertex="1">
          <mxGeometry y="90" width="210" height="30" as="geometry" />
        </mxCell>
        <mxCell id="pmK3BQI6PZ28xwM8QnD4-169" style="shape=partialRectangle;connectable=0;fillColor=none;top=0;left=0;bottom=0;right=0;editable=1;overflow=hidden;whiteSpace=wrap;html=1;fontSize=13;" parent="pmK3BQI6PZ28xwM8QnD4-168" vertex="1">
          <mxGeometry width="30" height="30" as="geometry">
            <mxRectangle width="30" height="30" as="alternateBounds" />
          </mxGeometry>
        </mxCell>
        <mxCell id="pmK3BQI6PZ28xwM8QnD4-170" value="Время запуска" style="shape=partialRectangle;connectable=0;fillColor=none;top=0;left=0;bottom=0;right=0;align=left;spacingLeft=6;overflow=hidden;whiteSpace=wrap;html=1;fontSize=13;" parent="pmK3BQI6PZ28xwM8QnD4-168" vertex="1">
          <mxGeometry x="30" width="180" height="30" as="geometry">
            <mxRectangle width="180" height="30" as="alternateBounds" />
          </mxGeometry>
        </mxCell>
        <mxCell id="pmK3BQI6PZ28xwM8QnD4-181" style="shape=tableRow;horizontal=0;startSize=0;swimlaneHead=0;swimlaneBody=0;fillColor=none;collapsible=0;dropTarget=0;points=[[0,0.5],[1,0.5]];portConstraint=eastwest;top=0;left=0;right=0;bottom=0;fontSize=13;" parent="pmK3BQI6PZ28xwM8QnD4-161" vertex="1">
          <mxGeometry y="120" width="210" height="30" as="geometry" />
        </mxCell>
        <mxCell id="pmK3BQI6PZ28xwM8QnD4-182" style="shape=partialRectangle;connectable=0;fillColor=none;top=0;left=0;bottom=0;right=0;editable=1;overflow=hidden;whiteSpace=wrap;html=1;fontSize=13;" parent="pmK3BQI6PZ28xwM8QnD4-181" vertex="1">
          <mxGeometry width="30" height="30" as="geometry">
            <mxRectangle width="30" height="30" as="alternateBounds" />
          </mxGeometry>
        </mxCell>
        <mxCell id="pmK3BQI6PZ28xwM8QnD4-183" value="Состояние расписания" style="shape=partialRectangle;connectable=0;fillColor=none;top=0;left=0;bottom=0;right=0;align=left;spacingLeft=6;overflow=hidden;whiteSpace=wrap;html=1;fontSize=13;" parent="pmK3BQI6PZ28xwM8QnD4-181" vertex="1">
          <mxGeometry x="30" width="180" height="30" as="geometry">
            <mxRectangle width="180" height="30" as="alternateBounds" />
          </mxGeometry>
        </mxCell>
      </root>
    </mxGraphModel>
  </diagram>
</mxfile>
